<svg xmlns="http://www.w3.org/2000/svg" width="108.307" height="118.725" viewBox="0 0 108.307 118.725"><g transform="translate(-22.465)"><g transform="translate(39.446 19.03)"><path d="M106.6,82.068h-8.48a2.423,2.423,0,0,0-2.423,2.423V97.817a2.423,2.423,0,0,0,2.423,2.423h8.48a2.423,2.423,0,0,0,2.423-2.423V84.491A2.423,2.423,0,0,0,106.6,82.068Zm-2.423,13.326h-3.635v-8.48h3.635Z" transform="translate(-95.695 -82.068)"/></g><g transform="translate(56.407 19.03)"><path d="M179.741,82.068h-8.48a2.423,2.423,0,0,0-2.423,2.423V97.817a2.423,2.423,0,0,0,2.423,2.423h8.48a2.423,2.423,0,0,0,2.423-2.423V84.491A2.423,2.423,0,0,0,179.741,82.068Zm-2.423,13.326h-3.634v-8.48h3.634Z" transform="translate(-168.838 -82.068)"/></g><g transform="translate(39.446 42.775)"><path d="M106.6,184.467h-8.48a2.423,2.423,0,0,0-2.423,2.423v13.326a2.423,2.423,0,0,0,2.423,2.423h8.48a2.423,2.423,0,0,0,2.423-2.423V186.89A2.423,2.423,0,0,0,106.6,184.467Zm-2.423,13.326h-3.635v-8.48h3.635Z" transform="translate(-95.695 -184.467)"/></g><g transform="translate(56.407 42.775)"><path d="M179.741,184.467h-8.48a2.423,2.423,0,0,0-2.423,2.423v13.326a2.423,2.423,0,0,0,2.423,2.423h8.48a2.423,2.423,0,0,0,2.423-2.423V186.89A2.423,2.423,0,0,0,179.741,184.467Zm-2.423,13.326h-3.634v-8.48h3.634Z" transform="translate(-168.838 -184.467)"/></g><g transform="translate(39.446 66.52)"><path d="M106.6,286.867h-8.48a2.423,2.423,0,0,0-2.423,2.423v13.326a2.423,2.423,0,0,0,2.423,2.423h8.48a2.423,2.423,0,0,0,2.423-2.423V289.29A2.423,2.423,0,0,0,106.6,286.867Zm-2.423,13.326h-3.635v-8.48h3.635Z" transform="translate(-95.695 -286.867)"/></g><g transform="translate(56.407 66.52)"><path d="M179.741,286.867h-8.48a2.423,2.423,0,0,0-2.423,2.423v13.326a2.423,2.423,0,0,0,2.423,2.423h8.48a2.423,2.423,0,0,0,2.423-2.423V289.29A2.423,2.423,0,0,0,179.741,286.867Zm-2.423,13.326h-3.634v-8.48h3.634Z" transform="translate(-168.838 -286.867)"/></g><g transform="translate(39.446 90.266)"><path d="M106.6,389.267h-8.48a2.423,2.423,0,0,0-2.423,2.423v13.326a2.423,2.423,0,0,0,2.423,2.423h8.48a2.423,2.423,0,0,0,2.423-2.423V391.69A2.423,2.423,0,0,0,106.6,389.267Zm-2.423,13.326h-3.635v-8.48h3.635Z" transform="translate(-95.695 -389.267)"/></g><g transform="translate(56.407 90.266)"><path d="M179.741,389.267h-8.48a2.423,2.423,0,0,0-2.423,2.423v13.326a2.423,2.423,0,0,0,2.423,2.423h8.48a2.423,2.423,0,0,0,2.423-2.423V391.69A2.423,2.423,0,0,0,179.741,389.267Zm-2.423,13.326h-3.634v-8.48h3.634Z" transform="translate(-168.838 -389.267)"/></g><g transform="translate(107.661 97.969)"><path d="M392.336,422.486h-.043a2.423,2.423,0,1,0,0,4.846h.043a2.423,2.423,0,1,0,0-4.846Z" transform="translate(-389.87 -422.486)"/></g><g transform="translate(107.661 40.832)"><path d="M392.336,176.087h-.043a2.423,2.423,0,0,0,0,4.846h.043a2.423,2.423,0,0,0,0-4.846Z" transform="translate(-389.87 -176.087)"/></g><g transform="translate(107.661 52.259)"><path d="M392.336,225.367h-.043a2.423,2.423,0,1,0,0,4.846h.043a2.423,2.423,0,1,0,0-4.846Z" transform="translate(-389.87 -225.367)"/></g><g transform="translate(107.661 63.687)"><path d="M392.336,274.646h-.043a2.423,2.423,0,0,0,0,4.846h.043a2.423,2.423,0,0,0,0-4.846Z" transform="translate(-389.87 -274.646)"/></g><g transform="translate(107.661 75.114)"><path d="M392.336,323.926h-.043a2.423,2.423,0,0,0,0,4.846h.043a2.423,2.423,0,0,0,0-4.846Z" transform="translate(-389.87 -323.926)"/></g><g transform="translate(107.661 86.541)"><path d="M392.336,373.206h-.043a2.423,2.423,0,1,0,0,4.846h.043a2.423,2.423,0,1,0,0-4.846Z" transform="translate(-389.87 -373.206)"/></g><g transform="translate(22.465 0)"><path d="M128.349,113.879h-6.635V31.758a2.423,2.423,0,0,0-2.423-2.423H79.061V12.842A2.423,2.423,0,0,0,77.2,10.484L33.1.065a2.423,2.423,0,0,0-2.98,2.358V113.879H24.888a2.423,2.423,0,0,0,0,4.846H128.349a2.423,2.423,0,0,0,0-4.846ZM74.215,31.758v82.121H34.963V5.485l39.252,9.274Zm42.652,82.121H79.061V102.815h22.7a2.423,2.423,0,1,0,0-4.846h-22.7V91.388h22.7a2.423,2.423,0,1,0,0-4.846h-22.7V79.96h22.7a2.423,2.423,0,1,0,0-4.846h-22.7V68.533h22.7a2.423,2.423,0,1,0,0-4.846h-22.7V57.105h22.7a2.423,2.423,0,1,0,0-4.846h-22.7V45.678h22.7a2.423,2.423,0,1,0,0-4.846h-22.7V34.181h37.806v79.7Z" transform="translate(-22.465 0)"/></g></g></svg>