<svg xmlns="http://www.w3.org/2000/svg" width="58.752" height="58.947" viewBox="0 0 58.752 58.947"><defs><style>.a{fill:#8ca6fc;}</style></defs><g transform="translate(0 0)"><path class="a" d="M57.876,38.906a.876.876,0,0,0,.876-.876V16.9a4.481,4.481,0,0,0-4.487-4.487H44.3V.876A.875.875,0,0,0,43.428,0H22.048a.875.875,0,0,0-.875.875V13.289a.875.875,0,1,0,1.75,0V1.751H42.553V12.417H32.883a4.468,4.468,0,0,0-3.174,1.314,4.528,4.528,0,0,0-1.027,1.6,4.208,4.208,0,0,0-.606-.044H8.928a.875.875,0,1,0,0,1.75H28.077a2.458,2.458,0,0,1,2.456,2.456V54.742A2.458,2.458,0,0,1,28.077,57.2H4.206a2.458,2.458,0,0,1-2.456-2.456V19.495a2.458,2.458,0,0,1,2.456-2.456h1.8a.875.875,0,0,0,0-1.75h-1.8A4.211,4.211,0,0,0,0,19.495V54.742a4.211,4.211,0,0,0,4.206,4.206H28.077a4.211,4.211,0,0,0,4.206-4.206V21.392h3.339V54.486a.875.875,0,0,0,.875.875H57.877a.875.875,0,0,0,.875-.875V40.948a.875.875,0,0,0-1.751,0V53.61H37.373V16.9a4.461,4.461,0,0,0-.929-2.737h17.82A2.731,2.731,0,0,1,57,16.9V38.03a.876.876,0,0,0,.875.876ZM34.821,14.967a2.724,2.724,0,0,1,.8,1.937v2.737h-3.34v-.147a4.206,4.206,0,0,0-1.96-3.553,2.728,2.728,0,0,1,2.563-1.774h0a2.725,2.725,0,0,1,1.933.8Zm0,0" transform="translate(0 0)"/><path class="a" d="M55.691,164.075a.875.875,0,0,0-.875-.875H31.285a.875.875,0,0,0-.875.875v8.658a.876.876,0,0,0,.875.876H54.816a.875.875,0,0,0,.875-.876Zm-1.75,7.783H32.161V164.95H53.94Zm0,0" transform="translate(-26.909 -144.41)"/><path class="a" d="M54.816,270.449H31.286a.875.875,0,0,0-.875.875v22.653a.876.876,0,0,0,.875.876H54.816a.875.875,0,0,0,.875-.876V271.324A.875.875,0,0,0,54.816,270.449Zm-.875,7.742H48.012V272.2h5.929Zm0,7.17H48.012v-5.419h5.929Zm-21.78-5.419H38.09v5.419H32.161Zm7.679,0h6.421v5.419H39.84Zm6.421-7.742v5.991H39.84V272.2Zm-8.171,0v5.991H32.161V272.2Zm-5.929,14.912H38.09V293.1H32.161ZM39.84,293.1v-5.991h6.421V293.1Zm8.172,0v-5.991h5.929V293.1Zm0,0" transform="translate(-26.909 -239.311)"/><path class="a" d="M342.288,146.336h-2.334a.875.875,0,1,0,0,1.75h2.334a.875.875,0,0,0,0-1.75Zm0,0" transform="translate(-300.04 -129.488)"/><path class="a" d="M395.8,146.336h-9.22a.875.875,0,1,0,0,1.75h9.22a.875.875,0,1,0,0-1.75Zm0,0" transform="translate(-341.3 -129.488)"/><path class="a" d="M342.288,317.645h-2.334a.875.875,0,1,0,0,1.751h2.334a.875.875,0,0,0,0-1.751Zm0,0" transform="translate(-300.04 -281.074)"/><path class="a" d="M396.677,318.52a.875.875,0,0,0-.875-.876h-9.22a.875.875,0,1,0,0,1.751h9.22A.875.875,0,0,0,396.677,318.52Zm0,0" transform="translate(-341.3 -281.073)"/><path class="a" d="M342.288,274.82h-2.334a.875.875,0,1,0,0,1.75h2.334a.875.875,0,0,0,0-1.75Zm0,0" transform="translate(-300.04 -243.179)"/><path class="a" d="M395.8,274.82h-9.22a.875.875,0,1,0,0,1.75h9.22a.875.875,0,1,0,0-1.75Zm0,0" transform="translate(-341.3 -243.179)"/><path class="a" d="M342.288,231.992h-2.334a.875.875,0,1,0,0,1.75h2.334a.875.875,0,0,0,0-1.75Zm0,0" transform="translate(-300.04 -205.282)"/><path class="a" d="M395.8,231.992h-9.22a.875.875,0,1,0,0,1.75h9.22a.875.875,0,0,0,0-1.75Zm0,0" transform="translate(-341.3 -205.282)"/><path class="a" d="M342.288,189.164h-2.334a.875.875,0,1,0,0,1.75h2.334a.875.875,0,0,0,0-1.75Zm0,0" transform="translate(-300.04 -167.385)"/><path class="a" d="M395.8,189.164h-9.22a.875.875,0,1,0,0,1.75h9.22a.875.875,0,0,0,0-1.75Zm0,0" transform="translate(-341.3 -167.385)"/><path class="a" d="M214.258,37.2h2.334a.875.875,0,1,0,0-1.751h-2.334a.875.875,0,0,0,0,1.751Zm0,0" transform="translate(-188.815 -31.368)"/><path class="a" d="M260.887,37.2h9.22a.875.875,0,0,0,0-1.751h-9.22a.875.875,0,0,0,0,1.751Zm0,0" transform="translate(-230.076 -31.368)"/><path class="a" d="M214.258,80.028h2.334a.875.875,0,1,0,0-1.751h-2.334a.875.875,0,0,0,0,1.751Zm0,0" transform="translate(-188.815 -69.265)"/><path class="a" d="M260.887,80.028h9.22a.875.875,0,0,0,0-1.751h-9.22a.875.875,0,0,0,0,1.751Zm0,0" transform="translate(-230.076 -69.265)"/><path class="a" d="M389.284,367.6a.507.507,0,0,0,.347.13h.021a.6.6,0,0,0,.6-.6V367a2.509,2.509,0,0,0,2.148-2.6c0-1.538-1.03-2.153-2.148-2.585v-2.156a2.5,2.5,0,0,1,.8.278,1.022,1.022,0,0,0,.45.152c.475,0,.681-.581.681-.877,0-.632-.99-.926-1.927-.99v-.13a.6.6,0,0,0-1.2,0v.169a2.378,2.378,0,0,0-2.252,2.4c0,1.583,1.3,2.081,2.252,2.442v2.42a2.576,2.576,0,0,1-1.148-.582,1.084,1.084,0,0,0-.609-.314c-.409,0-.717.54-.717.89,0,.661,1.015,1.453,2.474,1.544v.06A.593.593,0,0,0,389.284,367.6Zm-.233-7.863v1.627c-.366-.168-.694-.393-.694-.854C388.357,360.141,388.6,359.875,389.052,359.74Zm1.2,5.713v-1.83a1.029,1.029,0,0,1,.59.945A.907.907,0,0,1,390.253,365.453Zm0,0" transform="translate(-342.071 -316.34)"/><path class="a" d="M195.508,216h1.867a.875.875,0,0,0,0-1.751h-1.867a.875.875,0,0,0,0,1.751Zm0,0" transform="translate(-172.224 -189.583)"/></g></svg>