<svg xmlns="http://www.w3.org/2000/svg" width="47.774" height="61.834" viewBox="0 0 47.774 61.834"><defs><style>.a{fill:#8ca6fc;}</style></defs><g transform="translate(-44.001)"><g transform="translate(66.761 18.357)"><g transform="translate(0)"><path class="a" d="M263.353,152H247.128a1.211,1.211,0,0,0,0,2.415h16.225a1.211,1.211,0,0,0,0-2.415Z" transform="translate(-246.001 -152)"/></g></g><g transform="translate(78.247 24.154)"><path class="a" d="M349.864,200.355a1.074,1.074,0,0,0-1.593,0,1.269,1.269,0,0,0,0,1.708,1.074,1.074,0,0,0,1.593,0,1.269,1.269,0,0,0,0-1.708Z" transform="translate(-347.941 -200.001)"/></g><g transform="translate(66.76 5.193)"><g transform="translate(0)"><path class="a" d="M247.914,43.355a1.074,1.074,0,0,0-1.593,0,1.269,1.269,0,0,0,0,1.708,1.074,1.074,0,0,0,1.593,0,1.269,1.269,0,0,0,0-1.708Z" transform="translate(-245.991 -43.001)"/></g></g><g transform="translate(66.761 24.154)"><path class="a" d="M253.874,200h-6.747a1.211,1.211,0,0,0,0,2.415h6.747a1.211,1.211,0,0,0,0-2.415Z" transform="translate(-246.001 -200)"/></g><g transform="translate(66.761 31.4)"><g transform="translate(0)"><path class="a" d="M263.353,260H247.128a1.211,1.211,0,0,0,0,2.415h16.225a1.211,1.211,0,0,0,0-2.415Z" transform="translate(-246.001 -260)"/></g></g><g transform="translate(78.247 37.197)"><path class="a" d="M349.864,308.355a1.074,1.074,0,0,0-1.593,0,1.269,1.269,0,0,0,0,1.708,1.074,1.074,0,0,0,1.593,0,1.269,1.269,0,0,0,0-1.708Z" transform="translate(-347.941 -308.001)"/></g><g transform="translate(66.761 37.197)"><path class="a" d="M253.874,308h-6.747a1.211,1.211,0,0,0,0,2.415h6.747a1.211,1.211,0,0,0,0-2.415Z" transform="translate(-246.001 -308)"/></g><g transform="translate(66.761 44.443)"><g transform="translate(0)"><path class="a" d="M263.353,368H247.128a1.211,1.211,0,0,0,0,2.415h16.225a1.211,1.211,0,0,0,0-2.415Z" transform="translate(-246.001 -368)"/></g></g><g transform="translate(78.247 50.24)"><path class="a" d="M349.864,416.355a1.074,1.074,0,0,0-1.593,0,1.269,1.269,0,0,0,0,1.708,1.074,1.074,0,0,0,1.593,0,1.269,1.269,0,0,0,0-1.708Z" transform="translate(-347.941 -416.001)"/></g><g transform="translate(66.761 50.24)"><path class="a" d="M253.874,416h-6.747a1.211,1.211,0,0,0,0,2.415h6.747a1.211,1.211,0,0,0,0-2.415Z" transform="translate(-246.001 -416)"/></g><g transform="translate(44.001)"><g transform="translate(0)"><path class="a" d="M86.281,4.71H77.675A6.667,6.667,0,0,0,72.9,2.657h-.987a4.377,4.377,0,0,0-8.049,0h-.989A6.667,6.667,0,0,0,58.1,4.71h-8.6A5.708,5.708,0,0,0,44,10.6V55.945a5.708,5.708,0,0,0,5.494,5.888H86.281a5.708,5.708,0,0,0,5.494-5.888V10.6A5.708,5.708,0,0,0,86.281,4.71Zm-23.407.362H64.63a1.142,1.142,0,0,0,1.086-.886,2.217,2.217,0,0,1,4.344,0,1.142,1.142,0,0,0,1.086.886H72.9a4.826,4.826,0,0,1,4.66,4.589H58.215A4.826,4.826,0,0,1,62.874,5.072ZM89.522,55.946a3.367,3.367,0,0,1-3.24,3.473H49.495a3.367,3.367,0,0,1-3.24-3.473V10.6a3.367,3.367,0,0,1,3.24-3.473H56.52a7.839,7.839,0,0,0-.575,2.959v.785a1.169,1.169,0,0,0,1.127,1.208H78.7a1.169,1.169,0,0,0,1.127-1.208v-.785a7.839,7.839,0,0,0-.575-2.959h7.027a3.367,3.367,0,0,1,3.24,3.473Z" transform="translate(-44.001)"/></g></g><g transform="translate(50.904 17.713)"><path class="a" d="M115.081,147.021a1.074,1.074,0,0,0-1.593,0l-4.818,5.164-1.484-1.591a1.075,1.075,0,0,0-1.594,0,1.27,1.27,0,0,0,0,1.708l2.281,2.445a1.074,1.074,0,0,0,1.593,0l5.615-6.018A1.27,1.27,0,0,0,115.081,147.021Z" transform="translate(-105.261 -146.667)"/></g><g transform="translate(51.438 44.443)"><g transform="translate(0)"><path class="a" d="M116.536,368h-5.408A1.169,1.169,0,0,0,110,369.208V375a1.169,1.169,0,0,0,1.127,1.208h5.408A1.169,1.169,0,0,0,117.663,375v-5.8A1.169,1.169,0,0,0,116.536,368Zm-1.127,5.8h-3.155v-3.382h3.155Z" transform="translate(-110.001 -368)"/></g></g><g transform="translate(51.438 31.4)"><g transform="translate(0)"><path class="a" d="M116.536,260h-5.408A1.169,1.169,0,0,0,110,261.208V267a1.169,1.169,0,0,0,1.127,1.208h5.408A1.169,1.169,0,0,0,117.663,267v-5.8A1.169,1.169,0,0,0,116.536,260Zm-1.127,5.8h-3.155v-3.382h3.155Z" transform="translate(-110.001 -260)"/></g></g></g></svg>