<svg xmlns="http://www.w3.org/2000/svg" width="64.049" height="64.049" viewBox="0 0 64.049 64.049"><defs><style>.a{fill:#8ca6fc;}</style></defs><g transform="translate(0 0.001)"><path class="a" d="M11.265,49.531a5.223,5.223,0,0,0-2.523.644A29.536,29.536,0,0,1,37.9,3.087,1.251,1.251,0,0,0,38.4.634,32.263,32.263,0,0,0,32.024,0,32.024,32.024,0,0,0,6.891,51.871a5.256,5.256,0,1,0,4.373-2.34Zm1.946,7.2a2.752,2.752,0,1,1,.806-1.946A2.733,2.733,0,0,1,13.21,56.731Zm0,0" transform="translate(0)"/><path class="a" d="M229.936,40.218a5.243,5.243,0,1,0-1.849,1.7,29.536,29.536,0,0,1-29.106,47.1,1.251,1.251,0,0,0-.491,2.454,32.285,32.285,0,0,0,6.314.623,32.025,32.025,0,0,0,25.132-51.873Zm-6.318-.967a2.753,2.753,0,1,1,1.946.806A2.734,2.734,0,0,1,223.617,39.251Zm0,0" transform="translate(-172.78 -28.042)"/><path class="a" d="M91.591,118.284a1.251,1.251,0,0,0,1.251,1.251h7.822a1.251,1.251,0,0,0,1.251-1.251v-2.425a19.59,19.59,0,0,0,4.7-1.946l1.712,1.712a1.251,1.251,0,0,0,1.769,0l5.529-5.533a1.251,1.251,0,0,0,0-1.769l-1.71-1.71a19.589,19.589,0,0,0,1.946-4.7h2.416a1.251,1.251,0,0,0,1.251-1.251V92.845a1.251,1.251,0,0,0-1.251-1.251h-2.416A19.593,19.593,0,0,0,113.91,86.9l1.7-1.7a1.251,1.251,0,0,0,0-1.77L110.078,77.9a1.251,1.251,0,0,0-1.769,0l-1.7,1.7a19.59,19.59,0,0,0-4.7-1.946v-2.4A1.251,1.251,0,0,0,100.664,74H92.842a1.251,1.251,0,0,0-1.251,1.251v2.4A19.573,19.573,0,0,0,86.9,79.6l-1.7-1.7a1.251,1.251,0,0,0-1.769,0L77.9,83.429a1.251,1.251,0,0,0,0,1.769l1.7,1.7a19.586,19.586,0,0,0-1.946,4.695H75.239a1.251,1.251,0,0,0-1.251,1.25l0,7.822a1.25,1.25,0,0,0,1.251,1.251h2.416a19.59,19.59,0,0,0,1.946,4.7l-1.71,1.71a1.251,1.251,0,0,0,0,1.769l5.529,5.533a1.251,1.251,0,0,0,.884.367h0a1.251,1.251,0,0,0,.884-.366l1.712-1.712a19.606,19.606,0,0,0,4.7,1.946Zm-4.2-7a1.251,1.251,0,0,0-1.564.166L84.3,112.971l-3.76-3.763,1.522-1.522a1.251,1.251,0,0,0,.166-1.563,17.123,17.123,0,0,1-2.369-5.719,1.251,1.251,0,0,0-1.223-.988H76.487l0-5.32h2.146a1.251,1.251,0,0,0,1.223-.988,17.124,17.124,0,0,1,2.369-5.718,1.251,1.251,0,0,0-.166-1.563L80.55,84.314l3.763-3.76,1.51,1.511a1.252,1.252,0,0,0,1.564.166,17.116,17.116,0,0,1,5.718-2.369,1.252,1.252,0,0,0,.988-1.223V76.5h5.32v2.136a1.25,1.25,0,0,0,.988,1.223,17.13,17.13,0,0,1,5.718,2.369,1.25,1.25,0,0,0,1.563-.166l1.511-1.51,3.763,3.76-1.512,1.512a1.251,1.251,0,0,0-.166,1.564,17.134,17.134,0,0,1,2.369,5.718,1.25,1.25,0,0,0,1.223.988h2.15v5.32h-2.15a1.251,1.251,0,0,0-1.223.988,17.12,17.12,0,0,1-2.369,5.718,1.251,1.251,0,0,0,.166,1.564l1.522,1.522-3.76,3.763-1.523-1.523a1.251,1.251,0,0,0-1.564-.166,17.134,17.134,0,0,1-5.718,2.369,1.251,1.251,0,0,0-.988,1.223v2.158h-5.32v-2.158a1.252,1.252,0,0,0-.988-1.223,17.124,17.124,0,0,1-5.718-2.369Zm0,0" transform="translate(-64.729 -64.743)"/><path class="a" d="M194.044,183.708a10.337,10.337,0,1,0-10.337,10.337A10.348,10.348,0,0,0,194.044,183.708Zm-18.171,0a7.835,7.835,0,1,1,7.835,7.835A7.843,7.843,0,0,1,175.873,183.708Zm0,0" transform="translate(-151.684 -151.684)"/><path class="a" d="M339.329,20.312a1.252,1.252,0,1,0-.884-.366A1.26,1.26,0,0,0,339.329,20.312Zm0,0" transform="translate(-295.786 -15.581)"/><path class="a" d="M155.61,474.359a1.251,1.251,0,1,0,.884.367A1.261,1.261,0,0,0,155.61,474.359Zm0,0" transform="translate(-135.05 -415.019)"/></g></svg>