<svg xmlns="http://www.w3.org/2000/svg" width="55" height="55" viewBox="0 0 55 55"><defs><style>.a{fill:#8ca6fc;}</style></defs><g transform="translate(14.667 38.5)"><path class="a" d="M164.575,345.25a4.535,4.535,0,0,0,1.008-2.833v-1.833a4.583,4.583,0,1,0-9.167,0v1.833a4.535,4.535,0,0,0,1.008,2.833,4.573,4.573,0,0,0-2.842,1.778,4.573,4.573,0,0,0-2.842-1.778,4.535,4.535,0,0,0,1.008-2.833v-1.833a4.583,4.583,0,1,0-9.167,0v1.833a4.535,4.535,0,0,0,1.008,2.833,4.573,4.573,0,0,0-2.842,1.778,4.573,4.573,0,0,0-2.842-1.778,4.535,4.535,0,0,0,1.008-2.833v-1.833a4.583,4.583,0,1,0-9.167,0v1.833a4.535,4.535,0,0,0,1.008,2.833,4.583,4.583,0,0,0-3.758,4.5v2.75h1.833v-2.75a2.75,2.75,0,0,1,2.75-2.75h5.5a2.75,2.75,0,0,1,2.75,2.75v2.75h1.833v-2.75a2.75,2.75,0,0,1,2.75-2.75h5.5a2.75,2.75,0,0,1,2.75,2.75v2.75H155.5v-2.75a2.75,2.75,0,0,1,2.75-2.75h5.5a2.75,2.75,0,0,1,2.75,2.75v2.75h1.833v-2.75A4.583,4.583,0,0,0,164.575,345.25Zm-26.492-2.833a2.75,2.75,0,1,1-5.5,0v-1.833a2.75,2.75,0,1,1,5.5,0Zm12.833,0a2.75,2.75,0,1,1-5.5,0v-1.833a2.75,2.75,0,1,1,5.5,0Zm12.833,0a2.75,2.75,0,0,1-5.5,0v-1.833a2.75,2.75,0,0,1,5.5,0Z" transform="translate(-128 -336)"/></g><g transform="translate(0 9.167)"><path class="a" d="M22.335,89.231A.915.915,0,0,0,22,89.167H18.333a.917.917,0,0,0-.862.6L16.5,92.442l-.032-.087a4.858,4.858,0,0,0-4.551-3.188h-.024a4.536,4.536,0,0,0,.94-2.75V84.583a4.583,4.583,0,1,0-9.167,0v1.833a4.536,4.536,0,0,0,.94,2.75H4.583A4.589,4.589,0,0,0,0,93.75v11a.917.917,0,0,0,.917.917h2.75v8.892l-1.679,2.516A.917.917,0,0,0,2.75,118.5h11a.917.917,0,0,0,.763-1.425l-1.679-2.516V97.633l.231.458a3.748,3.748,0,0,0,6.832-.284l1.489-3.721,1.467-3.667A.917.917,0,0,0,22.335,89.231ZM5.5,84.583a2.75,2.75,0,1,1,5.5,0v1.833a2.75,2.75,0,0,1-5.5,0Zm-1.833,19.25H1.833V102H3.667Zm5.5,12.833v-11H7.333v11H4.463l.883-1.325a.923.923,0,0,0,.154-.509v-11H11v11a.923.923,0,0,0,.154.509l.883,1.325Zm9.027-19.536a1.915,1.915,0,0,1-3.49.145L12.742,93.34A.917.917,0,0,0,11,93.75V102H5.5V93.75a.917.917,0,0,0-1.833,0v6.417H1.833V93.75A2.75,2.75,0,0,1,4.583,91h2.75v9.167H9.167V91h2.75a3.018,3.018,0,0,1,2.828,1.981l.894,2.458a.917.917,0,0,0,1.723,0l.281-.772h1.537Zm1.719-4.3h-1.6L18.975,91h1.671Z" transform="translate(0 -80)"/></g><g transform="translate(14.667)"><path class="a" d="M167.417,5.5a.917.917,0,0,0,.917-.917V.917A.917.917,0,0,0,167.417,0h-38.5A.917.917,0,0,0,128,.917V4.583a.917.917,0,0,0,.917.917h.917v11h1.833V5.5h33V25.667H135.333V27.5H147.25v4.052l-5.958,3.4.909,1.591,5.049-2.883v3h1.833v-3l5.042,2.883.909-1.591-5.951-3.4V27.5h19.25V25.667H166.5V5.5ZM129.833,3.667V1.833H166.5V3.667Z" transform="translate(-128)"/></g><g transform="translate(24.217 9.194)"><path class="a" d="M232.274,81.157l-3.667-.917-.445,1.778,1.717.429-6.957,4.87-4.047-3.238a.917.917,0,0,0-1.105-.029l-6.417,4.583,1.065,1.49,5.853-4.18,4.042,3.234a.917.917,0,0,0,1.1.035l7.723-5.407v1.906h1.833V82.046A.917.917,0,0,0,232.274,81.157Z" transform="translate(-211.352 -80.24)"/></g></svg>