<svg xmlns="http://www.w3.org/2000/svg" width="108" height="108" viewBox="0 0 108 108"><g transform="translate(-1 -1)"><path d="M108.984,51.516a1.727,1.727,0,0,0-.495-1.232L94.554,36.349a1.734,1.734,0,0,0-1.232-.51H75.9V32.355h8.71a1.741,1.741,0,0,0,1.742-1.742V2.742A1.741,1.741,0,0,0,84.613,1H25.387a1.741,1.741,0,0,0-1.742,1.742V30.613a1.741,1.741,0,0,0,1.742,1.742H34.1v3.484H16.677a1.734,1.734,0,0,0-1.232.51L1.51,50.285a1.727,1.727,0,0,0-.495,1.232H1v8.71a10.422,10.422,0,0,0,3.484,7.769v39.263A1.741,1.741,0,0,0,6.226,109h97.548a1.741,1.741,0,0,0,1.742-1.742V67.995A10.416,10.416,0,0,0,109,60.226v-8.71ZM72.419,35.839H68.935V32.355h3.484Zm-6.968-3.484v3.484h-20.9V32.355ZM27.129,4.484H82.871V28.871H27.129ZM37.581,32.355h3.484v3.484H37.581ZM17.4,39.323H92.6l10.452,10.452H6.947ZM4.484,60.226V53.258H18.419v6.968a6.968,6.968,0,1,1-13.935,0ZM21.9,53.258H35.839v6.968a6.968,6.968,0,0,1-13.935,0Zm17.419,0H53.258v6.968a6.968,6.968,0,1,1-13.935,0Zm17.419,0H70.677v6.968a6.968,6.968,0,0,1-13.935,0Zm17.419,0H88.1v6.968a6.968,6.968,0,1,1-13.935,0ZM42.806,105.516H32.355V81.129H42.806Zm-13.935,0H18.419V81.129H28.871Zm62.71,0H81.129V81.129H91.581Zm-13.935,0H67.194V81.129H77.645Zm24.387,0H95.065V79.387a1.741,1.741,0,0,0-1.742-1.742H65.452a1.741,1.741,0,0,0-1.742,1.742v26.129H46.29V79.387a1.741,1.741,0,0,0-1.742-1.742H16.677a1.741,1.741,0,0,0-1.742,1.742v26.129H7.968V70.068a10.394,10.394,0,0,0,12.194-4.076,10.437,10.437,0,0,0,17.419,0,10.437,10.437,0,0,0,17.419,0,10.437,10.437,0,0,0,17.419,0,10.437,10.437,0,0,0,17.419,0,10.394,10.394,0,0,0,12.194,4.076ZM98.548,67.194a6.975,6.975,0,0,1-6.968-6.968V53.258h13.935v6.968A6.975,6.975,0,0,1,98.548,67.194Z"/><path d="M18,10.226v6.968a5.232,5.232,0,0,0,5.226,5.226h5.226V18.935H23.226a1.744,1.744,0,0,1-1.742-1.742V10.226a1.744,1.744,0,0,1,1.742-1.742h5.226V5H23.226A5.232,5.232,0,0,0,18,10.226Z" transform="translate(12.613 2.968)"/><path d="M34,8.484V22.419h3.484V15.452H42.71V11.968H37.484V8.484H42.71V5H37.484A3.487,3.487,0,0,0,34,8.484Z" transform="translate(24.484 2.968)"/><path d="M41,8.484V18.935a3.487,3.487,0,0,0,3.484,3.484H49.71V18.935H44.484V15.452H49.71V11.968H44.484V8.484H49.71V5H44.484A3.487,3.487,0,0,0,41,8.484Z" transform="translate(29.677 2.968)"/><path d="M31.226,5A5.232,5.232,0,0,0,26,10.226V22.419h3.484V18.935h3.484v3.484h3.484V10.226A5.232,5.232,0,0,0,31.226,5ZM29.484,15.452V10.226a1.742,1.742,0,0,1,3.484,0v5.226Z" transform="translate(18.548 2.968)"/></g></svg>