<svg xmlns="http://www.w3.org/2000/svg" width="54.965" height="54.965" viewBox="0 0 54.965 54.965"><defs><style>.a{fill:#8ca6fc;}</style></defs><g transform="translate(-1 -1)"><path class="a" d="M51.532,1H43.553a4.438,4.438,0,0,0-4.433,4.433v6.725l-3.776,3.776A10.615,10.615,0,0,0,32.226,14.1a7.092,7.092,0,1,0-7.488,0,10.647,10.647,0,0,0-6.895,9.945v6.206a4.438,4.438,0,0,0,4.433,4.433v3.179l-5.686,5.686H5.433A4.438,4.438,0,0,0,1,47.986v3.546a4.438,4.438,0,0,0,4.433,4.433h7.979a4.438,4.438,0,0,0,4.433-4.433V44.807l4.433-4.433V52.419a3.531,3.531,0,0,0,6.206,2.321,3.531,3.531,0,0,0,6.206-2.321V34.688a4.438,4.438,0,0,0,4.433-4.433V24.05A10.588,10.588,0,0,0,36.6,17.187l3.776-3.776H51.532a4.438,4.438,0,0,0,4.433-4.433V5.433A4.438,4.438,0,0,0,51.532,1ZM16.071,51.532a2.663,2.663,0,0,1-2.66,2.66H5.433a2.663,2.663,0,0,1-2.66-2.66V47.986a2.663,2.663,0,0,1,2.66-2.66H16.071Zm7.092-43.44a5.319,5.319,0,1,1,5.319,5.319A5.325,5.325,0,0,1,23.163,8.092ZM37.348,30.255a2.663,2.663,0,0,1-2.66,2.66V21.39H32.915V52.419a1.773,1.773,0,0,1-3.546,0V31.142H27.6V52.419a1.773,1.773,0,1,1-3.546,0V21.39H22.277V32.915a2.663,2.663,0,0,1-2.66-2.66V24.05a8.865,8.865,0,0,1,17.731,0ZM54.192,8.979a2.663,2.663,0,0,1-2.66,2.66H40.894V5.433a2.663,2.663,0,0,1,2.66-2.66h7.979a2.663,2.663,0,0,1,2.66,2.66Z"/><path class="a" d="M48,5h9.752V6.773H48Z" transform="translate(-5.333 -0.454)"/><path class="a" d="M57,9h1.773v1.773H57Z" transform="translate(-6.354 -0.908)"/><path class="a" d="M48,9h6.206v1.773H48Z" transform="translate(-5.333 -0.908)"/><path class="a" d="M5,57h9.752v1.773H5Z" transform="translate(-0.454 -6.354)"/><path class="a" d="M5,53H6.773v1.773H5Z" transform="translate(-0.454 -5.9)"/><path class="a" d="M9,53h6.206v1.773H9Z" transform="translate(-0.908 -5.9)"/><path class="a" d="M58.731,38H56.958V53.071H55.184v-13.3H53.411v13.3H51.638V45.092H49.865v7.979H48.092V42.433H46.319V53.071H44.546V44.206H42.773v8.865H41v1.773H60.5V53.071H58.731Z" transform="translate(-4.539 -4.198)"/><path class="a" d="M61,59h1.773v1.773H61Z" transform="translate(-6.808 -6.581)"/><path class="a" d="M41,59H56.958v1.773H41Z" transform="translate(-4.539 -6.581)"/><path class="a" d="M10.752,20.5A9.752,9.752,0,1,0,1,10.752,9.763,9.763,0,0,0,10.752,20.5Zm7.979-9.752a7.925,7.925,0,0,1-1.112,4.043L14.747,12.64a4.387,4.387,0,0,0,.438-1.888,4.441,4.441,0,0,0-3.546-4.343V2.825a7.989,7.989,0,0,1,7.092,7.926Zm-7.979-2.66a2.66,2.66,0,1,1-2.66,2.66A2.663,2.663,0,0,1,10.752,8.092ZM9.865,2.825V6.409a4.43,4.43,0,1,0,3.813,7.646l2.876,2.157A7.973,7.973,0,1,1,9.865,2.825Z" transform="translate(0 0)"/></g></svg>