<svg xmlns="http://www.w3.org/2000/svg" width="118.674" height="112.801" viewBox="0 0 118.674 112.801"><g transform="translate(-2 -2)"><path d="M17,34a1,1,0,0,0-1-1H8a1,1,0,0,0-1,1v8a1,1,0,0,0,1,1h8a1,1,0,0,0,1-1Zm-2,7H9V35h6Z" transform="translate(0 7.864)"/><path d="M30,34a1,1,0,0,0-1-1H21a1,1,0,0,0-1,1v8a1,1,0,0,0,1,1h8a1,1,0,0,0,1-1Zm-2,7H22V35h6Z" transform="translate(5.855 7.864)"/><path d="M17,47a1,1,0,0,0-1-1H8a1,1,0,0,0-1,1v8a1,1,0,0,0,1,1h8a1,1,0,0,0,1-1Zm-2,7H9V48h6Z" transform="translate(0 11.162)"/><path d="M30,47a1,1,0,0,0-1-1H21a1,1,0,0,0-1,1v8a1,1,0,0,0,1,1h8a1,1,0,0,0,1-1Zm-2,7H22V48h6Z" transform="translate(5.855 11.162)"/><path d="M16,59H8a1,1,0,0,0-1,1v8a1,1,0,0,0,1,1h8a1,1,0,0,0,1-1V60A1,1,0,0,0,16,59Zm-1,8H9V61h6Z" transform="translate(0 14.459)"/><path d="M29,59H21a1,1,0,0,0-1,1v8a1,1,0,0,0,1,1h8a1,1,0,0,0,1-1V60A1,1,0,0,0,29,59Zm-1,8H22V61h6Z" transform="translate(5.855 14.459)"/><path d="M47,7H39a1,1,0,0,0-1,1v8a1,1,0,0,0,1,1h8a1,1,0,0,0,1-1V8A1,1,0,0,0,47,7Zm-1,8H40V9h6Z" transform="translate(11.71)"/><path d="M52,17h8a1,1,0,0,0,1-1V8a1,1,0,0,0-1-1H52a1,1,0,0,0-1,1v8A1,1,0,0,0,52,17Zm1-8h6v6H53Z" transform="translate(15.939)"/><path d="M65,17h8a1,1,0,0,0,1-1V8a1,1,0,0,0-1-1H65a1,1,0,0,0-1,1v8A1,1,0,0,0,65,17Zm1-8h6v6H66Z" transform="translate(20.168)"/><path d="M47,20H39a1,1,0,0,0-1,1v8a1,1,0,0,0,1,1h8a1,1,0,0,0,1-1V21A1,1,0,0,0,47,20Zm-1,8H40V22h6Z" transform="translate(11.71 4.566)"/><path d="M52,30h8a1,1,0,0,0,1-1V21a1,1,0,0,0-1-1H52a1,1,0,0,0-1,1v8A1,1,0,0,0,52,30Zm1-8h6v6H53Z" transform="translate(15.939 4.566)"/><path d="M65,30h8a1,1,0,0,0,1-1V21a1,1,0,0,0-1-1H65a1,1,0,0,0-1,1v8A1,1,0,0,0,65,30Zm1-8h6v6H66Z" transform="translate(20.168 4.566)"/><path d="M47,33H39a1,1,0,0,0-1,1v8a1,1,0,0,0,1,1h8a1,1,0,0,0,1-1V34A1,1,0,0,0,47,33Zm-1,8H40V35h6Z" transform="translate(11.71 7.864)"/><path d="M52,43h8a1,1,0,0,0,1-1V34a1,1,0,0,0-1-1H52a1,1,0,0,0-1,1v8A1,1,0,0,0,52,43Zm1-8h6v6H53Z" transform="translate(15.939 7.864)"/><path d="M65,43h8a1,1,0,0,0,1-1V34a1,1,0,0,0-1-1H65a1,1,0,0,0-1,1v8A1,1,0,0,0,65,43Zm1-8h6v6H66Z" transform="translate(20.168 7.864)"/><path d="M47,46H39a1,1,0,0,0-1,1v8a1,1,0,0,0,1,1h8a1,1,0,0,0,1-1V47A1,1,0,0,0,47,46Zm-1,8H40V48h6Z" transform="translate(11.71 11.162)"/><path d="M61,55V47a1,1,0,0,0-1-1H52a1,1,0,0,0-1,1v8a1,1,0,0,0,1,1h8A1,1,0,0,0,61,55Zm-2-1H53V48h6Z" transform="translate(15.939 11.162)"/><path d="M65,56h8a1,1,0,0,0,1-1V47a1,1,0,0,0-1-1H65a1,1,0,0,0-1,1v8A1,1,0,0,0,65,56Zm1-8h6v6H66Z" transform="translate(20.168 11.162)"/><path d="M116.8,82.923H106.485V80.47a5.89,5.89,0,0,0-.863-3.065,1.326,1.326,0,0,0-1.762-.448,1.192,1.192,0,0,0-.471,1.675,3.549,3.549,0,0,1,.516,1.838v2.452H88.426V80.47a3.782,3.782,0,0,1,3.87-3.678h7.74a1.26,1.26,0,0,0,1.29-1.226V3.226A1.26,1.26,0,0,0,100.035,2H43.278a1.26,1.26,0,0,0-1.29,1.226V33.879H27.8a1.228,1.228,0,1,0,0,2.452H41.988v76.018H4.58V36.331H22.639a1.26,1.26,0,0,0,1.29-1.226V24.07a1.16,1.16,0,0,0-.04-.19A11.83,11.83,0,0,0,23.2,7.264a1.336,1.336,0,0,0-1.824,0L4.958,22.869a1.182,1.182,0,0,0,0,1.734,13.205,13.205,0,0,0,9.121,3.585,13.357,13.357,0,0,0,7.27-2.136v7.826H3.29A1.26,1.26,0,0,0,2,35.1v78.47A1.26,1.26,0,0,0,3.29,114.8H51.017a1.26,1.26,0,0,0,1.29-1.226V87.827h12.9v24.522h-9.03a1.228,1.228,0,1,0,0,2.452H116.8a3.782,3.782,0,0,0,3.87-3.678V86.6a3.782,3.782,0,0,0-3.87-3.678ZM7.751,23.682,22.231,9.918a9.466,9.466,0,0,1-.855,12.951A10.739,10.739,0,0,1,7.751,23.682Zm64.143,88.667H67.787V86.6a1.26,1.26,0,0,0-1.29-1.226H51.017a1.26,1.26,0,0,0-1.29,1.226v25.748h-5.16V4.452H98.745V74.34H92.3a6.3,6.3,0,0,0-6.45,6.131v2.452H75.526a3.782,3.782,0,0,0-3.87,3.678v24.522A3.478,3.478,0,0,0,71.894,112.349Zm3.632,0a1.261,1.261,0,0,1-1.29-1.226v-3.554a6.317,6.317,0,0,1,5.029,4.781Zm42.568-1.226a1.261,1.261,0,0,1-1.29,1.226h-3.74a6.317,6.317,0,0,1,5.029-4.781Zm0-6.032a8.821,8.821,0,0,0-7.636,7.259H81.873a8.821,8.821,0,0,0-7.636-7.259V98.862h6.45v1.226a1.26,1.26,0,0,0,1.29,1.226h1.29v2.452a1.292,1.292,0,0,0,2.58,0v-2.452h1.29a1.26,1.26,0,0,0,1.29-1.226V98.862H103.9v1.226a1.26,1.26,0,0,0,1.29,1.226h1.29v2.452a1.292,1.292,0,0,0,2.58,0v-2.452h1.29a1.26,1.26,0,0,0,1.29-1.226V98.862h6.45ZM83.266,98.862V95.184h2.58v3.678Zm23.219,0V95.184h2.58v3.678Zm11.609-2.452h-6.45V93.958a1.26,1.26,0,0,0-1.29-1.226h-5.16a1.26,1.26,0,0,0-1.29,1.226V96.41H88.425V93.958a1.26,1.26,0,0,0-1.29-1.226h-5.16a1.26,1.26,0,0,0-1.29,1.226V96.41h-6.45V86.6a1.261,1.261,0,0,1,1.29-1.226H116.8a1.261,1.261,0,0,1,1.29,1.226Z"/><circle cx="1" cy="1" r="1" transform="translate(53 80.801)"/><circle cx="1" cy="1" r="1" transform="translate(58 80.801)"/><circle cx="1" cy="1" r="1" transform="translate(63 80.801)"/></g></svg>