<svg xmlns="http://www.w3.org/2000/svg" width="54.306" height="54.314" viewBox="0 0 54.306 54.314"><defs><style>.a{fill:#8ca6fc;}</style></defs><g transform="translate(-0.04 -0.001)"><path class="a" d="M54.451,1.14a.8.8,0,0,0-.234-.5L54.21.633a.8.8,0,0,0-.492-.226A22.938,22.938,0,0,0,38.906,2.671a28.49,28.49,0,0,0-6.2,4.083l-.011.011-.012.011L19.67,19.769l-2.994-2.994h0a4.024,4.024,0,0,0-5.678,0L8.555,19.213A.8.8,0,0,0,9.68,20.339L12.123,17.9a2.43,2.43,0,0,1,3.429,0h0l2.992,2.992-7,6.986-1.7-1.7A.8.8,0,0,0,8.9,26.05L3.883,28.836l-1.35-1.35L7.28,22.739a.8.8,0,1,0-1.125-1.125L.845,26.923a.8.8,0,0,0,0,1.125l2.337,2.337a.8.8,0,0,0,.949.133l5.017-2.786L12.5,31.08a2.341,2.341,0,0,0-1.061,3.11,6.061,6.061,0,0,0,1.286,1.469,7.219,7.219,0,0,0-5.853,2.025.8.8,0,0,0,0,1.13L15.945,47.9a.8.8,0,0,0,1.12,0,7.034,7.034,0,0,0,2.124-4.992,7.232,7.232,0,0,0-.043-.825,5.119,5.119,0,0,0,1.632,1.341,2.358,2.358,0,0,0,2.935-1.13l3.348,3.351-2.708,5.117a.8.8,0,0,0,.141.935l2.344,2.344a.8.8,0,0,0,1.125,0L38.139,43.868a4.036,4.036,0,0,0,0-5.66l-3.088-3.088,13-12.979.011-.012.011-.01a28.452,28.452,0,0,0,4.1-6.188A22.8,22.8,0,0,0,54.451,1.14ZM30.944,26.305a4.87,4.87,0,0,1-2.835-3.613,5.114,5.114,0,0,1,8.629-4.608,5.092,5.092,0,0,1,0,7.213A5.292,5.292,0,0,1,30.944,26.305Zm-2.56.119a6.7,6.7,0,0,0,.859.723l-9.21,9.211-1.5-1.5,9.195-9.2A6.771,6.771,0,0,0,28.384,26.424ZM17.6,42.9a5.434,5.434,0,0,1-1.125,3.278L8.6,38.3a5.649,5.649,0,0,1,7.189.426A5.8,5.8,0,0,1,17.6,42.9Zm4.764-1.64a.751.751,0,0,1-1.283.51l-8.06-8.06a.746.746,0,0,1,1-1.108l8.176,8.174A.763.763,0,0,1,22.362,41.256Zm14.652-1.923a2.43,2.43,0,0,1,0,3.409L27.4,52.354l-1.366-1.366,2.708-5.117a.8.8,0,0,0-.141-.935l-1.691-1.691,7.013-7ZM50.769,15.179A28.909,28.909,0,0,1,47.441,20.4l-1.973-1.969a.8.8,0,0,0-1.124,1.126l2.02,2.016L25.788,42.118l-2.466-2.466c-.02-.022-.038-.044-.059-.065l-2.1-2.1,9.55-9.551a6.7,6.7,0,0,0,8.99-7.557,6.69,6.69,0,0,0-1.836-3.417,6.7,6.7,0,0,0-10.948,7.263l-9.509,9.51-2.2-2.2c-.023-.023-.048-.043-.072-.064L12.671,29,33.247,8.464l8.566,8.566a.8.8,0,0,0,1.125-1.125L34.423,7.39C36.61,5.639,44.164.284,52.975,1.883A21.617,21.617,0,0,1,50.769,15.179Z" transform="translate(-0.512)"/><path class="a" d="M.829,399.248a.794.794,0,0,0,.562-.233l5.878-5.87a.8.8,0,0,0-1.125-1.126l-5.878,5.87A.8.8,0,0,0,.829,399.248Z" transform="translate(0 -350.22)"/><path class="a" d="M10.3,416.938a.8.8,0,0,0-1.125,0L.7,425.4a.8.8,0,0,0,1.125,1.126l8.472-8.461A.8.8,0,0,0,10.3,416.938Z" transform="translate(-0.38 -372.495)"/><path class="a" d="M55.984,441.823l-5.877,5.871a.8.8,0,0,0,1.125,1.126l5.877-5.871A.8.8,0,0,0,55.984,441.823Z" transform="translate(-44.546 -394.74)"/></g></svg>