<svg xmlns="http://www.w3.org/2000/svg" width="63.049" height="59.938" viewBox="0 0 63.049 59.938"><defs><style>.a{fill:#8ca6fc;}</style></defs><g transform="translate(0)"><path class="a" d="M62.935,129.207a5.284,5.284,0,0,0-2.357-3.4,5.366,5.366,0,0,0-4.1-.709l-6.572,1.492v-2.665a25.8,25.8,0,0,0,3.666-4.309,25.152,25.152,0,0,0,3.6-8.409,25.562,25.562,0,0,0,.05-10.937,1.231,1.231,0,0,0-2.408.511,23.109,23.109,0,0,1-.045,9.893,22.729,22.729,0,0,1-3.253,7.6,21.765,21.765,0,0,1-1.61,2.106V106.843a1.226,1.226,0,0,0-1.231-1.221H38.937V92.578a1.227,1.227,0,0,0-1.227-1.221L26.737,91.32h0a1.234,1.234,0,0,0-.869.356,1.215,1.215,0,0,0-.362.865v6.785H15.759a1.227,1.227,0,0,0-1.231,1.221v12.1H11.784v-1.659a1.226,1.226,0,0,0-1.231-1.221H9.289A22.937,22.937,0,0,1,10.3,97.784c.229-.628.49-1.254.774-1.86a1.218,1.218,0,0,0-.6-1.623,1.236,1.236,0,0,0-1.636.592c-.315.671-.6,1.364-.857,2.058a25.325,25.325,0,0,0-1.189,12.812H1.231A1.226,1.226,0,0,0,0,110.985v21.469a1.226,1.226,0,0,0,1.231,1.221h9.321a1.226,1.226,0,0,0,1.231-1.221v-1.161h4.632l18.764,7.3a14.936,14.936,0,0,0,9.113.565L59,135.451a5.313,5.313,0,0,0,3.933-6.244ZM47.447,108.065v19.087l-3.292.748c-.354.08-.712.144-1.072.193a12.6,12.6,0,0,1-4.129-.119l-.017,0v-1.852a5.618,5.618,0,0,0,.758-4.759,5.464,5.464,0,0,0-.58-1.281q-.084-.136-.176-.266l0,0V108.064h8.51Zm-19.482-14.3,8.51.028v24.073l-4.756-1.952-3.754-1.542Zm-10.974,8H25.5v11.593l-1.527-.627a1.238,1.238,0,0,0-.471-.093H16.99ZM9.321,131.233H2.463V112.206H9.321Zm49.074,1.85-14.707,3.708a12.471,12.471,0,0,1-7.608-.472L17.1,128.935a1.239,1.239,0,0,0-.45-.084H11.784V115.086H23.257l7.968,3.271,4.36,1.79a3.046,3.046,0,0,1,1.648,3.958,3.485,3.485,0,0,1-.493.858,3.189,3.189,0,0,1-3.228,1.1l-.029-.007c-.071-.018-.142-.038-.212-.061l-8.286-3.159-.1-.039a1.234,1.234,0,0,0-1.591.7A1.218,1.218,0,0,0,24,125.082s4.672,1.782,8.234,3.144c.072.028.143.053.215.077l2.736,1.043a22.741,22.741,0,0,0,2.51.847,15.059,15.059,0,0,0,7.011.087l4.248-.964.013,0,8.065-1.831a2.9,2.9,0,0,1,2.217.383,2.873,2.873,0,0,1-.853,5.218Zm0,0" transform="translate(0 -79.679)"/><path class="a" d="M119.152,9.067a1.27,1.27,0,0,0,.854-.329,23.954,23.954,0,0,1,17.7-6.137,23.909,23.909,0,0,1,6.95,1.514,1.275,1.275,0,0,0,.907-2.382,26.453,26.453,0,0,0-7.69-1.676A26.506,26.506,0,0,0,118.3,6.846a1.275,1.275,0,0,0,.854,2.221Zm0,0" transform="translate(-103.757 0)"/><path class="a" d="M351.884,44.549a1.276,1.276,0,0,0,1.8-.126L364.171,32.35a1.275,1.275,0,1,0-1.924-1.672L351.758,42.751A1.274,1.274,0,0,0,351.884,44.549Zm0,0" transform="translate(-308.864 -26.385)"/><path class="a" d="M406.712,99.738a3.2,3.2,0,1,0,3.2,3.2A3.2,3.2,0,0,0,406.712,99.738Zm0,3.851a.651.651,0,1,1,.651-.651A.651.651,0,0,1,406.712,103.589Zm0,0" transform="translate(-354.293 -87.506)"/><path class="a" d="M351.181,33.666a3.2,3.2,0,1,0-3.2-3.2A3.2,3.2,0,0,0,351.181,33.666Zm0-3.852a.651.651,0,1,1-.651.651A.652.652,0,0,1,351.181,29.815Zm0,0" transform="translate(-305.294 -23.79)"/><path class="a" d="M91.676,82.585a1.274,1.274,0,1,0,.469-1.548,1.285,1.285,0,0,0-.469,1.548Zm0,0" transform="translate(-80.32 -70.888)"/></g></svg>