<svg xmlns="http://www.w3.org/2000/svg" width="120" height="120" viewBox="0 0 120 120"><path d="M216,32h4v4h-4Zm0,0" transform="translate(-162 -24)"/><path d="M248,32h4v4h-4Zm0,0" transform="translate(-186 -24)"/><path d="M216,64h4v4h-4Zm0,0" transform="translate(-162 -48)"/><path d="M248,64h4v4h-4Zm0,0" transform="translate(-186 -48)"/><path d="M216,96h4v4h-4Zm0,0" transform="translate(-162 -72)"/><path d="M248,96h4v4h-4Zm0,0" transform="translate(-186 -72)"/><path d="M216,128h4v4h-4Zm0,0" transform="translate(-162 -96)"/><path d="M248,128h4v4h-4Zm0,0" transform="translate(-186 -96)"/><path d="M216,160h4v4h-4Zm0,0" transform="translate(-162 -120)"/><path d="M248,160h4v4h-4Zm0,0" transform="translate(-186 -120)"/><path d="M312,160h4v4h-4Zm0,0" transform="translate(-234 -120)"/><path d="M312,192h4v4h-4Zm0,0" transform="translate(-234 -144)"/><path d="M312,224h4v4h-4Zm0,0" transform="translate(-234 -168)"/><path d="M312,256h4v4h-4Zm0,0" transform="translate(-234 -192)"/><path d="M152,160h4v4h-4Zm0,0" transform="translate(-114 -120)"/><path d="M152,192h4v4h-4Zm0,0" transform="translate(-114 -144)"/><path d="M152,224h4v4h-4Zm0,0" transform="translate(-114 -168)"/><path d="M152,256h4v4h-4Zm0,0" transform="translate(-114 -192)"/><path d="M118,20h-2V14a2,2,0,0,0-2-2H92a2,2,0,0,0-2,2v6H88a2,2,0,0,0-2,2V32H82V14a2,2,0,0,0-2-2H74V2a2,2,0,0,0-2-2H48a2,2,0,0,0-2,2V12H40a2,2,0,0,0-2,2V32H34V22a2,2,0,0,0-2-2H30V14a2,2,0,0,0-2-2H6a2,2,0,0,0-2,2v6H2a2,2,0,0,0-2,2V66H4V24H30V50h4V36H46V48h4V4H70V48h4V36H86V60h4V24h26V66h4V22A2,2,0,0,0,118,20ZM8,20V16H26v4ZM42,32V16h4V32Zm32,0V16h4V32ZM94,20V16h18v4Zm0,0" transform="translate(0)"/><path d="M376,112h8v4h-8Zm0,0" transform="translate(-282 -84)"/><path d="M424,112h8v4h-8Zm0,0" transform="translate(-318 -84)"/><path d="M376,144h8v4h-8Zm0,0" transform="translate(-282 -108)"/><path d="M424,144h8v4h-8Zm0,0" transform="translate(-318 -108)"/><path d="M110,212h-.052A9.9,9.9,0,0,0,112,206v-4a10,10,0,1,0-20,0v4a9.9,9.9,0,0,0,2.052,6H94a11.09,11.09,0,0,0-10.188,6.694L81,224.678l-2.8-5.945A11.083,11.083,0,0,0,68,212h-.052A9.9,9.9,0,0,0,70,206v-4a10,10,0,0,0-20,0v4a9.9,9.9,0,0,0,2.052,6H52a11.093,11.093,0,0,0-10.17,6.668l-2.828,6-2.8-5.952A11.086,11.086,0,0,0,26,212h-.052A9.9,9.9,0,0,0,28,206v-4a10,10,0,0,0-20,0v4a9.9,9.9,0,0,0,2.052,6H10A10.012,10.012,0,0,0,0,222v18a2,2,0,0,0,2,2H8v18H0v4H120v-4h-8V242h6a2,2,0,0,0,2-2V222a10.012,10.012,0,0,0-10-10Zm-14-6v-4a6,6,0,0,1,12,0v4a6,6,0,0,1-12,0Zm-42,0v-4a6,6,0,1,1,12,0v4a6,6,0,1,1-12,0Zm-42,0v-4a6,6,0,1,1,12,0v4a6,6,0,1,1-12,0Zm8,54V240H16v20H12V222H8v16H4V222a6,6,0,0,1,6-6H26a7.113,7.113,0,0,1,6.552,4.366L40.85,238H35.236L27.8,223.106A2,2,0,0,0,24,224v36Zm24.54-18.08c.056-.019.11-.04.164-.063a2.021,2.021,0,0,0,.326-.152,2.745,2.745,0,0,0,.414-.338,2.035,2.035,0,0,0,.138-.166c.038-.041.074-.084.108-.128s.044-.1.071-.154.048-.066.066-.106L50,231.424V260H28V232.472l4.21,8.422A2,2,0,0,0,34,242H44a1.949,1.949,0,0,0,.54-.08ZM62,260V242H58v18H54V222a2,2,0,0,0-3.828-.812l-6.224,14-2.736-5.816,4.266-9.07a7.1,7.1,0,0,1,2.633-3.142A6.979,6.979,0,0,1,52,216H68a7.112,7.112,0,0,1,6.548,4.372l4.238,9-2.842,6.042L69.8,223.106A2,2,0,0,0,66,224v36Zm25.828-19.188L92,231.424V260H70V232.472l4.2,8.422a.882.882,0,0,0,.054.076c.016.026.026.07.046.1.042.056.087.108.134.16s.088.112.137.166a2.13,2.13,0,0,0,.248.2c.056.04.105.084.164.118a1.99,1.99,0,0,0,.319.143c.055.02.1.048.16.063A2.048,2.048,0,0,0,76,242H86a2,2,0,0,0,1.828-1.188ZM116,238h-4V220h-4v40h-4V240h-4v20H96V222a2,2,0,0,0-3.828-.812L84.7,238H79.151l8.3-17.634c.01-.022.018-.042.025-.064A7.094,7.094,0,0,1,94,216h16a6,6,0,0,1,6,6Zm0,0" transform="translate(0 -144)"/><path d="M32,112H50v4H32Zm0,0" transform="translate(-24 -84)"/><path d="M32,144H50v4H32Zm0,0" transform="translate(-24 -108)"/></svg>