<svg xmlns="http://www.w3.org/2000/svg" width="68.7" height="50.342" viewBox="0 0 68.7 50.342"><defs><style>.a{fill:#8ca6fc;}</style></defs><g transform="translate(0 -68.409)"><g transform="translate(0 68.409)"><path class="a" d="M64.182,68.409H4.518A4.523,4.523,0,0,0,0,72.927v41.306a4.523,4.523,0,0,0,4.518,4.518H64.182a4.523,4.523,0,0,0,4.518-4.518V72.927A4.523,4.523,0,0,0,64.182,68.409ZM16.064,116.6H4.518a2.369,2.369,0,0,1-2.367-2.367V72.927A2.369,2.369,0,0,1,4.518,70.56H16.064V116.6Zm50.485-2.366a2.369,2.369,0,0,1-2.367,2.367H18.215V70.56H64.182a2.369,2.369,0,0,1,2.367,2.367Z" transform="translate(0 -68.409)"/></g><g transform="translate(20.653 72.999)"><path class="a" d="M159.585,102.614H155a1.076,1.076,0,1,0,0,2.151h4.59a1.076,1.076,0,0,0,0-2.151Z" transform="translate(-153.92 -102.614)"/></g><g transform="translate(4.589 72.999)"><path class="a" d="M42.164,102.614H35.28a1.076,1.076,0,0,0,0,2.151h6.884a1.076,1.076,0,1,0,0-2.151Z" transform="translate(-34.204 -102.614)"/></g><g transform="translate(4.589 84.472)"><path class="a" d="M42.164,188.125H35.28a1.076,1.076,0,1,0,0,2.151h6.884a1.076,1.076,0,1,0,0-2.151Z" transform="translate(-34.204 -188.125)"/></g><g transform="translate(4.589 93.652)"><path class="a" d="M42.164,256.534H35.28a1.076,1.076,0,1,0,0,2.151h6.884a1.076,1.076,0,1,0,0-2.151Z" transform="translate(-34.204 -256.534)"/></g><g transform="translate(4.589 102.831)"><path class="a" d="M42.164,324.944H35.28a1.076,1.076,0,0,0,0,2.151h6.884a1.076,1.076,0,0,0,0-2.151Z" transform="translate(-34.204 -324.944)"/></g><g transform="translate(4.589 89.062)"><path class="a" d="M42.164,222.33H35.28a1.076,1.076,0,0,0,0,2.151h6.884a1.076,1.076,0,0,0,0-2.151Z" transform="translate(-34.204 -222.33)"/></g><g transform="translate(4.589 98.241)"><path class="a" d="M42.164,290.739H35.28a1.076,1.076,0,0,0,0,2.151h6.884a1.076,1.076,0,0,0,0-2.151Z" transform="translate(-34.204 -290.739)"/></g><g transform="translate(4.589 109.715)"><path class="a" d="M39.869,376.251H35.28a1.076,1.076,0,0,0,0,2.151h4.59a1.076,1.076,0,0,0,0-2.151Z" transform="translate(-34.204 -376.251)"/></g><g transform="translate(4.589 77.588)"><path class="a" d="M39.869,136.818H35.28a1.076,1.076,0,1,0,0,2.151h4.59a1.076,1.076,0,1,0,0-2.151Z" transform="translate(-34.204 -136.818)"/></g><g transform="translate(29.832 72.999)"><path class="a" d="M227.994,102.614H223.4a1.076,1.076,0,0,0,0,2.151h4.59a1.076,1.076,0,1,0,0-2.151Z" transform="translate(-222.329 -102.614)"/></g><g transform="translate(39.011 72.999)"><path class="a" d="M296.4,102.614h-4.59a1.076,1.076,0,0,0,0,2.151h4.59a1.076,1.076,0,0,0,0-2.151Z" transform="translate(-290.738 -102.614)"/></g><g transform="translate(48.191 72.999)"><path class="a" d="M364.813,102.614h-4.59a1.076,1.076,0,0,0,0,2.151h4.59a1.076,1.076,0,0,0,0-2.151Z" transform="translate(-359.148 -102.614)"/></g><g transform="translate(57.37 72.999)"><path class="a" d="M433.222,102.614h-4.59a1.076,1.076,0,1,0,0,2.151h4.59a1.076,1.076,0,1,0,0-2.151Z" transform="translate(-427.557 -102.614)"/></g><g transform="translate(21.8 87.915)"><path class="a" d="M174.52,223.175a1.076,1.076,0,0,0-1.506.214,4.661,4.661,0,1,1,0-5.59,1.076,1.076,0,1,0,1.721-1.291,6.813,6.813,0,1,0,0,8.173A1.075,1.075,0,0,0,174.52,223.175Z" transform="translate(-162.471 -213.78)"/></g><g transform="translate(36.717 87.915)"><path class="a" d="M281.381,222.717a4.518,4.518,0,0,0-.931-8.939h-5.737a1.076,1.076,0,0,0-1.076,1.076v11.474a1.076,1.076,0,1,0,2.151,0v-3.514h2.976l3.119,4.159a1.076,1.076,0,1,0,1.721-1.291Zm-5.593-2.054V215.93h4.661a2.367,2.367,0,1,1,0,4.733h-4.661Z" transform="translate(-273.637 -213.778)"/></g><g transform="translate(49.338 87.915)"><path class="a" d="M381.319,226.221l-1.147-11.474a1.076,1.076,0,0,0-2.069-.292l-3.591,8.977-3.591-8.977a1.076,1.076,0,0,0-2.069.292L367.7,226.221a1.076,1.076,0,0,0,2.141.214l.71-7.1,2.958,7.394a1.076,1.076,0,0,0,2,0l2.958-7.394.71,7.1a1.076,1.076,0,0,0,1.069.969,1.054,1.054,0,0,0,.108-.006A1.076,1.076,0,0,0,381.319,226.221Z" transform="translate(-367.699 -213.778)"/></g></g></svg>