<svg xmlns="http://www.w3.org/2000/svg" width="52.91" height="63.062" viewBox="0 0 52.91 63.062"><defs><style>.a{fill:#8ca6fc;}</style></defs><g transform="translate(-0.499 0)"><path class="a" d="M36.272,15.676a3.041,3.041,0,1,0-4.3,4.3l5.18,5.18a3.04,3.04,0,0,0,4.3,0L52.518,14.089a3.04,3.04,0,1,0-4.3-4.3L47,11.009a11.753,11.753,0,0,0-2.947-1.644V7.982a3.044,3.044,0,0,0-3.04-3.041H31.477V3.886A3.89,3.89,0,0,0,27.591,0H16.959a3.89,3.89,0,0,0-3.886,3.886v4.39a2.161,2.161,0,0,0,2.159,2.159H29.318a2.161,2.161,0,0,0,2.159-2.159V6.792H41.01a1.192,1.192,0,0,1,1.19,1.19v.852a11.751,11.751,0,1,0,0,23.037V60.022a1.191,1.191,0,0,1-1.19,1.19H3.539a1.191,1.191,0,0,1-1.19-1.19V7.982a1.191,1.191,0,0,1,1.19-1.19h6.15a.925.925,0,1,0,0-1.85H3.539A3.044,3.044,0,0,0,.5,7.982v52.04a3.044,3.044,0,0,0,3.04,3.04H41.011a3.044,3.044,0,0,0,3.04-3.04V31.337a11.759,11.759,0,0,0,7.566-10.575.925.925,0,1,0-1.849-.064,9.853,9.853,0,0,1-6.854,9.083.879.879,0,0,0-.154.051,9.906,9.906,0,1,1-2.888-19.382,9.885,9.885,0,0,1,5.806,1.882L39.3,18.706Zm-6.646-7.4a.308.308,0,0,1-.308.308H15.232a.308.308,0,0,1-.308-.308V3.886a2.037,2.037,0,0,1,2.035-2.035H27.591a2.037,2.037,0,0,1,2.035,2.035Zm19.9,2.821a1.19,1.19,0,0,1,1.683,1.683L40.143,23.847a1.189,1.189,0,0,1-1.683,0l-5.18-5.18a1.19,1.19,0,1,1,1.683-1.683l3.684,3.684a.925.925,0,0,0,1.308,0Zm0,0" transform="translate(0)"/><path class="a" d="M118.1,188.547H106.828a.925.925,0,0,0,0,1.85H118.1a.925.925,0,1,0,0-1.85Zm0,0" transform="translate(-92.422 -165.324)"/><path class="a" d="M48.17,111.012H41.945a.925.925,0,1,0,0,1.85H48.17a.925.925,0,1,0,0-1.85Zm0,0" transform="translate(-35.53 -97.339)"/><path class="a" d="M106.827,225.244H118.1a.925.925,0,1,0,0-1.85H106.827a.925.925,0,0,0,0,1.85Zm0,0" transform="translate(-92.421 -195.879)"/><path class="a" d="M121.994,279.648H106.827a.925.925,0,0,0,0,1.85h15.168a.925.925,0,1,0,0-1.85Zm0,0" transform="translate(-92.421 -245.204)"/><path class="a" d="M106.827,316.347h7.584a.925.925,0,0,0,0-1.85h-7.584a.925.925,0,0,0,0,1.85Zm0,0" transform="translate(-92.421 -275.76)"/><path class="a" d="M106.827,372.7H118.1a.925.925,0,1,0,0-1.85H106.827a.925.925,0,0,0,0,1.85Zm0,0" transform="translate(-92.421 -325.17)"/><path class="a" d="M106.827,407.545h15.168a.925.925,0,1,0,0-1.85H106.827a.925.925,0,0,0,0,1.85Zm0,0" transform="translate(-92.421 -355.726)"/><path class="a" d="M37.87,182.035a3.737,3.737,0,1,0,3.737,3.737A3.741,3.741,0,0,0,37.87,182.035Zm0,5.623a1.886,1.886,0,1,1,1.887-1.887A1.889,1.889,0,0,1,37.87,187.658Zm0,0" transform="translate(-29.491 -159.614)"/><path class="a" d="M37.87,274.242a3.737,3.737,0,1,0,3.737,3.737A3.741,3.741,0,0,0,37.87,274.242Zm0,5.624a1.887,1.887,0,1,1,1.887-1.887A1.889,1.889,0,0,1,37.87,279.866Zm0,0" transform="translate(-29.491 -240.464)"/><path class="a" d="M37.87,365.441a3.737,3.737,0,1,0,3.737,3.737A3.741,3.741,0,0,0,37.87,365.441Zm0,5.623a1.886,1.886,0,1,1,1.887-1.887A1.889,1.889,0,0,1,37.87,371.064Zm0,0" transform="translate(-29.491 -320.43)"/></g></svg>