<svg xmlns="http://www.w3.org/2000/svg" width="65.848" height="66" viewBox="0 0 65.848 66"><defs><style>.a{fill:#8ca6fc;}</style></defs><g transform="translate(-0.572)"><g transform="translate(0.573 10.645)"><g transform="translate(0)"><path class="a" d="M54.064,126.839,51.6,119.445a7.452,7.452,0,0,0-5.737-4.974l-7.114-1.294v-.551a10.714,10.714,0,0,0,3.173-2.818h2.149a3.2,3.2,0,0,0,3.194-3.194V93.839a13.839,13.839,0,0,0-27.677,0v7.452a4.265,4.265,0,0,0,3.395,4.17,10.665,10.665,0,0,0,5.121,7.164v.551l-7.115,1.294a7.45,7.45,0,0,0-5.736,4.974l-.426,1.278L11.2,117.1a1.067,1.067,0,0,1,0-1.506l4.2-4.2-7.892-7.892-4.752,4.752a7.452,7.452,0,0,0,0,10.538l14.387,14.387a7.448,7.448,0,0,0,10.5.032l5.185-4.751-1.617-1.614Zm-8.928-20.226a1.066,1.066,0,0,1-1.065,1.065h-.9a10.574,10.574,0,0,0,.694-2.217,4.217,4.217,0,0,0,1.266-.5Zm-1.065-3.489V99.457a2.111,2.111,0,0,1,0,3.666Zm-21.29,0a2.111,2.111,0,0,1,0-3.666Zm0-7.156v1.216a4.222,4.222,0,0,0-1.065.441V93.839a11.71,11.71,0,0,1,23.419,0v3.785a4.183,4.183,0,0,0-1.065-.441V95.968H43.007a11.712,11.712,0,0,1-8.334-3.452l-1.247-1.247L32.18,92.516a11.712,11.712,0,0,1-8.334,3.452Zm2.129,7.452V98.056a13.8,13.8,0,0,0,8.516-3.783,13.8,13.8,0,0,0,8.516,3.783v5.363a8.452,8.452,0,0,1-1.152,4.258H33.427v2.129h5.614a8.5,8.5,0,0,1-14.13-6.387Zm11.71,10.154v.05l-3.194,3.194-3.194-3.194v-.05a10.637,10.637,0,0,0,6.387,0Zm-19.349,6.544a5.324,5.324,0,0,1,4.1-3.554l7.441-1.352,4.617,4.617,4.616-4.616,7.44,1.352a5.323,5.323,0,0,1,4.1,3.554l1.532,4.591H29.093l-4.146-4.146-4.607,4.168a1.087,1.087,0,0,1-1.505,0l-2.325-2.325ZM7.513,106.505l4.882,4.882-1.156,1.156-4.882-4.882Zm18.666,25.163a5.324,5.324,0,0,1-7.527,0L4.265,117.28a5.324,5.324,0,0,1,0-7.527l.585-.585,4.882,4.882-.038.038a3.2,3.2,0,0,0,0,4.517l7.634,7.634a3.177,3.177,0,0,0,2.259.936,3.134,3.134,0,0,0,2.22-.9l.08-.071,4.9,4.9Zm2.182-2-4.894-4.894,1.406-1.271,4.885,4.885Z" transform="translate(-0.58 -80)"/></g></g><g transform="translate(45.129)"><path class="a" d="M353.525,0h-14.9a3.2,3.2,0,0,0-3.194,3.194V11.71a3.2,3.2,0,0,0,3.194,3.194h2.843l-1.1,6.42,10.273-6.42h2.888a3.2,3.2,0,0,0,3.194-3.194V3.194A3.2,3.2,0,0,0,353.525,0Zm1.064,11.71a1.066,1.066,0,0,1-1.064,1.065h-3.5L343.265,17l.725-4.225h-5.368a1.066,1.066,0,0,1-1.065-1.065V3.194a1.066,1.066,0,0,1,1.065-1.065h14.9a1.066,1.066,0,0,1,1.064,1.065Z" transform="translate(-335.428)"/></g><g transform="translate(49.388 4.258)"><rect class="a" width="12.774" height="2.129"/></g><g transform="translate(49.388 8.516)"><rect class="a" width="8.516" height="2.129"/></g><g transform="translate(60.033 8.516)"><rect class="a" width="2.129" height="2.129"/></g><g transform="translate(0.572 3.194)"><g transform="translate(0)"><path class="a" d="M33.42,24a29.787,29.787,0,0,0-29,23.041L2.4,43.679l-1.826,1.1,3.742,6.235,6.235-3.742-1.1-1.826L6.568,47.172A27.685,27.685,0,0,1,41.621,27.364l.63-2.033A29.787,29.787,0,0,0,33.42,24Z" transform="translate(-0.572 -24)"/></g></g><g transform="translate(54.924 19.829)"><path class="a" d="M420.014,152.758l-6.235-3.742-3.741,6.236,1.826,1.1,1.863-3.105a27.7,27.7,0,0,1-4.691,26.371l1.653,1.341a29.81,29.81,0,0,0,5.1-28.248l3.129,1.877Z" transform="translate(-409.036 -149.016)"/></g></g></svg>