<svg xmlns="http://www.w3.org/2000/svg" width="61.855" height="60.636" viewBox="0 0 61.855 60.636"><defs><style>.a{fill:#8ca6fc;}</style></defs><g transform="translate(0 -5.046)"><g transform="translate(0 5.046)"><path class="a" d="M101.367,285.582A11.719,11.719,0,1,0,89.648,297.3,11.732,11.732,0,0,0,101.367,285.582Zm-21.022,0a9.3,9.3,0,1,1,9.3,9.3A9.313,9.313,0,0,1,80.345,285.582Z" transform="translate(-68.514 -241.387)"/><path class="a" d="M251.192,125.461l2.43,4.21a1.208,1.208,0,0,0,1.505.514l2.072-.851a9.016,9.016,0,0,0,1.179.682l.3,2.219a1.208,1.208,0,0,0,1.2,1.047h4.861a1.208,1.208,0,0,0,1.2-1.047l.3-2.219a9.03,9.03,0,0,0,1.179-.681l2.072.85a1.208,1.208,0,0,0,1.505-.514l2.43-4.21a1.208,1.208,0,0,0-.308-1.56l-1.772-1.368a9.1,9.1,0,0,0,0-1.363l1.772-1.368a1.208,1.208,0,0,0,.308-1.56l-2.43-4.21a1.208,1.208,0,0,0-1.505-.514l-2.072.851a9.01,9.01,0,0,0-1.179-.682l-.3-2.219a1.208,1.208,0,0,0-1.2-1.047h-4.861a1.208,1.208,0,0,0-1.2,1.047l-.3,2.219a9.027,9.027,0,0,0-1.179.682l-2.072-.851a1.209,1.209,0,0,0-1.505.514l-2.43,4.21a1.208,1.208,0,0,0,.308,1.56l1.772,1.368a9.1,9.1,0,0,0,0,1.363L251.5,123.9A1.208,1.208,0,0,0,251.192,125.461Zm4.551-2.575a6.707,6.707,0,0,1,0-2.069,1.208,1.208,0,0,0-.455-1.143l-1.475-1.139,1.374-2.38,1.726.708a1.208,1.208,0,0,0,1.219-.178,6.624,6.624,0,0,1,1.788-1.033,1.208,1.208,0,0,0,.763-.966l.249-1.847h2.749l.249,1.847a1.208,1.208,0,0,0,.763.966,6.623,6.623,0,0,1,1.788,1.033,1.208,1.208,0,0,0,1.219.178l1.726-.708,1.374,2.381-1.475,1.139a1.208,1.208,0,0,0-.455,1.143,6.712,6.712,0,0,1,0,2.069,1.208,1.208,0,0,0,.455,1.143l1.475,1.139-1.374,2.38-1.726-.708a1.208,1.208,0,0,0-1.219.178,6.621,6.621,0,0,1-1.788,1.033,1.208,1.208,0,0,0-.763.966l-.249,1.847h-2.749l-.249-1.847a1.208,1.208,0,0,0-.763-.966,6.618,6.618,0,0,1-1.788-1.033,1.208,1.208,0,0,0-1.219-.178l-1.726.708-1.374-2.38,1.475-1.139A1.209,1.209,0,0,0,255.743,122.886Z" transform="translate(-220.703 -97.691)"/><path class="a" d="M312.261,177.339a4.411,4.411,0,1,0-4.411-4.411A4.416,4.416,0,0,0,312.261,177.339Zm0-6.406a1.995,1.995,0,1,1-1.995,1.995A2,2,0,0,1,312.261,170.933Z" transform="translate(-270.659 -148.768)"/><path class="a" d="M113.656,137.763a1.208,1.208,0,1,0,2.321.673,15.032,15.032,0,0,1,8.555-9.642l-.6,1.37a1.208,1.208,0,1,0,2.211.973l1.689-3.837a1.221,1.221,0,0,0-.478-1.519l-3.513-2.138a1.208,1.208,0,1,0-1.256,2.064l1.251.762A17.45,17.45,0,0,0,113.656,137.763Z" transform="translate(-99.883 -109.16)"/><path class="a" d="M306.839,317.7a1.208,1.208,0,1,0-2.321-.673,15.032,15.032,0,0,1-8.555,9.642l.6-1.37a1.208,1.208,0,0,0-2.212-.973l-1.689,3.837a1.22,1.22,0,0,0,.478,1.519l3.513,2.138a1.208,1.208,0,0,0,1.256-2.064l-1.252-.762A17.449,17.449,0,0,0,306.839,317.7Z" transform="translate(-257.221 -278.568)"/><path class="a" d="M61.849,9.651s0-.009,0-.014a4.879,4.879,0,0,0-4.893-4.592H4.841A4.888,4.888,0,0,0,0,9.887V60.85A4.881,4.881,0,0,0,4.911,65.68h.025a1.208,1.208,0,1,0,0-2.416H4.911a2.492,2.492,0,0,1-2.495-2.415V15.574H59.439V60.841a2.443,2.443,0,0,1-2.42,2.423c-13.939.008-40.409.018-41.41,0-.037,0-.075,0-.113,0a1.208,1.208,0,0,0-1.154,1.26,1.226,1.226,0,0,0,1.316,1.157l41.361,0a4.881,4.881,0,0,0,4.836-4.84V9.876c0-.075,0-.15-.006-.225Zm-2.41,3.507H2.416V9.887A2.451,2.451,0,0,1,4.841,7.462H56.946a2.492,2.492,0,0,1,2.493,2.424v3.271Z" transform="translate(0 -5.046)"/><path class="a" d="M46.2,37.245a1.208,1.208,0,1,0,1.2.742A1.217,1.217,0,0,0,46.2,37.245Z" transform="translate(-39.633 -33.352)"/><path class="a" d="M81.9,37.349A1.207,1.207,0,1,0,83.475,38,1.217,1.217,0,0,0,81.9,37.349Z" transform="translate(-71.35 -33.367)"/><path class="a" d="M117.951,37.349a1.207,1.207,0,1,0,1.577.652A1.218,1.218,0,0,0,117.951,37.349Z" transform="translate(-103.048 -33.367)"/><path class="a" d="M76.205,487.167a1.207,1.207,0,1,0,.445,1.466A1.22,1.22,0,0,0,76.205,487.167Z" transform="translate(-65.349 -428.746)"/><path class="a" d="M151.109,328.735v-.561a3.5,3.5,0,0,0,2.506-2.778,3.087,3.087,0,0,0-2.1-3.493c-.134-.047-.271-.1-.408-.147v-2.56a1.575,1.575,0,0,1,.382.225l-.01-.009s.78.544,1.289-.105a.862.862,0,0,0-.061-1.227,3.477,3.477,0,0,0-1.6-.774v-.42a.906.906,0,0,0-1.812,0v.482l-.116.032a2.911,2.911,0,0,0-2,2.281,2.592,2.592,0,0,0,.859,2.553,6.242,6.242,0,0,0,1.254.737v3.467a2.6,2.6,0,0,1-1.034-.462.906.906,0,0,0-.992,1.516,4.185,4.185,0,0,0,2.026.771v.474a.906.906,0,0,0,1.812,0Zm.719-3.64a1.7,1.7,0,0,1-.719,1.118v-2.52A1.249,1.249,0,0,1,151.828,325.1Zm-2.666-4.289a.819.819,0,0,1-.2-.791,1.234,1.234,0,0,1,.332-.638V320.9C149.249,320.872,149.2,320.84,149.161,320.806Z" transform="translate(-129.118 -278.414)"/></g></g></svg>