<svg xmlns="http://www.w3.org/2000/svg" width="74.991" height="67.954" viewBox="0 0 74.991 67.954"><defs><style>.a{fill:#8ca6fc;}</style></defs><g transform="translate(0 -0.5)"><path class="a" d="M72.267,28.393H70.929A33.981,33.981,0,0,0,13.47,10.452,33.726,33.726,0,0,0,4.035,28.54H2.723A2.726,2.726,0,0,0,0,31.263v9.9a2.727,2.727,0,0,0,2.723,2.723H4.848A33.972,33.972,0,0,0,15.366,60.26,1.1,1.1,0,0,0,16.8,58.592a31.844,31.844,0,0,1-3.625-3.663A42.177,42.177,0,0,1,18.3,53.157a36.457,36.457,0,0,0,2.766,4.185,42.879,42.879,0,0,0,7.465,7.627,31.514,31.514,0,0,1-6.449-2.694A1.1,1.1,0,0,0,21.016,64.2,34.007,34.007,0,0,0,70.141,43.934h2.126a2.726,2.726,0,0,0,2.723-2.723V31.116a2.727,2.727,0,0,0-2.723-2.723Zm-3.578,0H61.04c-.092-.57-.193-1.14-.311-1.709a38.748,38.748,0,0,0-3.047-9.009c.2-.055.406-.11.608-.167a41.924,41.924,0,0,0,4.933-1.694A31.431,31.431,0,0,1,68.69,28.393Zm-9.854.147H47.473c-.038-.552-.079-1.1-.128-1.653-.218-2.46-.54-4.842-.954-7.12a71.187,71.187,0,0,0,9.117-1.534,36.519,36.519,0,0,1,3.067,8.9c.1.469.181.939.26,1.41Zm1.129-16.533q.971.971,1.847,2.011a42.444,42.444,0,0,1-4.127,1.375c-.344.1-.691.193-1.039.285a38.639,38.639,0,0,0-2.3-3.629,37.774,37.774,0,0,0-7.759-8.034,31.619,31.619,0,0,1,13.373,7.992ZM40.886,2.88A35.744,35.744,0,0,1,52.561,13.328q1.006,1.41,1.866,2.9A69.529,69.529,0,0,1,45.962,17.6,45.236,45.236,0,0,0,40.346,2.828q.27.023.54.052ZM37.5,2.7h.08c2.672,3.526,4.808,8.793,6.184,15.092q-3.524.254-7.215.2c-1.669-.024-3.456-.076-5.316-.189C32.6,11.5,34.742,6.229,37.415,2.7h.08Zm-2.851.128a45.273,45.273,0,0,0-5.625,14.815,63.091,63.091,0,0,1-8.527-1.295q.891-1.551,1.937-3.02A35.756,35.756,0,0,1,34.1,2.879q.269-.028.54-.051ZM28.59,19.813c-.41,2.263-.729,4.63-.945,7.073-.049.55-.09,1.1-.127,1.653H16.154c.078-.47.164-.941.261-1.41a36.544,36.544,0,0,1,3.007-8.774,63.967,63.967,0,0,0,9.168,1.457ZM15.025,12.007A31.619,31.619,0,0,1,28.4,4.015,37.746,37.746,0,0,0,20.64,12.05a38.454,38.454,0,0,0-2.357,3.742,42.081,42.081,0,0,1-5.11-1.767q.879-1.041,1.853-2.018Zm-3.259,3.809a43.6,43.6,0,0,0,5.488,1.969,38.761,38.761,0,0,0-2.994,8.9q-.191.927-.335,1.856H6.272a31.429,31.429,0,0,1,5.494-12.724ZM2.723,41.684a.525.525,0,0,1-.524-.525v-9.9a.525.525,0,0,1,.524-.524H34.465a1.1,1.1,0,1,0,0-2.2H29.721c.034-.486.072-.973.114-1.459.218-2.461.541-4.836.957-7.1,2.006.129,3.928.186,5.72.212q.651.009,1.3.01,3.254,0,6.384-.239c.418,2.268.741,4.649.96,7.116q.064.729.115,1.459H41.331a1.1,1.1,0,1,0,0,2.2H58.387V41.683H2.723Zm55.4,2.2A34.993,34.993,0,0,1,55.5,50.72a71.228,71.228,0,0,0-9.1-1.533c.316-1.719.575-3.492.775-5.3H58.124Zm-13.156,0c-.2,1.747-.454,3.454-.763,5.109q-3.755-.285-7.692-.231c-1.8.026-3.721.083-5.73.212-.308-1.649-.562-3.35-.76-5.09ZM11.773,53.136a31.749,31.749,0,0,1-4.631-9.253H14.6a37.274,37.274,0,0,0,2.656,7.287A43.541,43.541,0,0,0,11.773,53.136Zm5.1-9.253H27.811c.2,1.8.456,3.555.768,5.26A63.966,63.966,0,0,0,19.426,50.6a35,35,0,0,1-2.557-6.714ZM34.094,66.068A38.028,38.028,0,0,1,22.815,56.005,34.144,34.144,0,0,1,20.522,52.6a63.17,63.17,0,0,1,8.49-1.287,56.611,56.611,0,0,0,1.544,5.706,43,43,0,0,0,4.1,9.107c-.189-.017-.378-.037-.566-.057Zm3.4.187h-.08a35.42,35.42,0,0,1-4.77-9.925c-.541-1.635-1.013-3.369-1.417-5.18,1.86-.113,3.646-.165,5.316-.189q3.689-.052,7.215.2c-.4,1.805-.875,3.535-1.414,5.165a35.4,35.4,0,0,1-4.77,9.925H37.5Zm2.833-.126a42.937,42.937,0,0,0,4.1-9.11,56.237,56.237,0,0,0,1.535-5.664A69.523,69.523,0,0,1,54.4,52.721a34.111,34.111,0,0,1-2.22,3.284,38.029,38.029,0,0,1-11.29,10.07q-.278.029-.557.054Zm19.637-9.182a31.61,31.61,0,0,1-13.529,8.037,42.87,42.87,0,0,0,7.486-7.643,36.328,36.328,0,0,0,2.7-4.072q.534.142,1.062.292a42.6,42.6,0,0,1,4.124,1.375c-.584.692-1.2,1.365-1.844,2.012Zm3.254-3.808a41.958,41.958,0,0,0-4.93-1.692c-.2-.058-.405-.112-.608-.167a37.26,37.26,0,0,0,2.7-7.346h7.463a31.426,31.426,0,0,1-4.623,9.206ZM72.791,41.16a.525.525,0,0,1-.524.524H60.586V30.739H72.267a.525.525,0,0,1,.524.525Zm0,0"/><path class="a" d="M50.7,225.168c0,.162-.244.333-.529.333-.308,0-.52-.171-.52-.333v-5.452c0-.2.212-.326.52-.326.284,0,.529.13.529.326v2.494a1.114,1.114,0,0,1,1.024-.617,1.562,1.562,0,0,1,1.4,1.649v1.925c0,.22-.268.334-.528.334-.244,0-.52-.114-.52-.334v-1.925a.751.751,0,0,0-.707-.731.691.691,0,0,0-.667.731v1.926Zm0,0" transform="translate(-42.383 -186.83)"/><path class="a" d="M83,227.265c0,.317.114.431.455.431h.317a.443.443,0,1,1,0,.886h-.317c-.975,0-1.5-.4-1.5-1.316v-3.94c0-.2.276-.325.52-.325.268,0,.528.13.528.325v1.4h.959c.17,0,.268.2.268.382s-.1.382-.268.382H83v1.779Zm0,0" transform="translate(-69.946 -189.911)"/><path class="a" d="M105.576,227.265c0,.317.113.431.455.431h.317a.443.443,0,1,1,0,.886h-.317c-.975,0-1.5-.4-1.5-1.316v-3.94c0-.2.276-.325.52-.325.268,0,.528.13.528.325v1.4h.959c.17,0,.268.2.268.382s-.1.382-.268.382h-.959Zm0,0" transform="translate(-89.218 -189.911)"/><path class="a" d="M128.2,234.8v.244a1.277,1.277,0,0,1,1.1-.617,1.561,1.561,0,0,1,1.454,1.649v.666a1.613,1.613,0,0,1-1.422,1.666,1.207,1.207,0,0,1-1.064-.642V239.8c0,.17-.244.333-.537.333s-.511-.162-.511-.333v-5c0-.2.219-.325.5-.325s.487.13.487.325Zm1.5,1.276a.763.763,0,0,0-.739-.731.711.711,0,0,0-.7.731v.812a.79.79,0,0,0,.715.6.775.775,0,0,0,.723-.748Zm0,0" transform="translate(-108.586 -199.663)"/><path class="a" d="M159.828,237.261c0-.715-1.926-.268-1.926-1.625,0-.577.366-1.211,1.454-1.211.659,0,1.292.228,1.292.528,0,.146-.138.5-.382.5-.2,0-.447-.236-.894-.236-.406,0-.569.2-.569.366,0,.593,1.95.187,1.95,1.633,0,.724-.536,1.187-1.495,1.187-.828,0-1.47-.342-1.47-.7,0-.17.146-.463.349-.463.236,0,.415.366,1.1.366.479,0,.593-.187.593-.35Zm0,0" transform="translate(-134.678 -199.663)"/><path class="a" d="M186.347,238.252a.562.562,0,0,1-.544.552.552.552,0,1,1,.544-.552Zm0,2.372a.562.562,0,0,1-.544.553.552.552,0,1,1,.544-.553Zm0,0" transform="translate(-158.117 -202.457)"/><path class="a" d="M203.106,218.705a.315.315,0,0,1-.033.146l-2.917,5.9a.353.353,0,0,1-.317.178.379.379,0,0,1-.39-.358.277.277,0,0,1,.041-.138l2.917-5.923a.317.317,0,0,1,.293-.171A.394.394,0,0,1,203.106,218.705Zm0,0" transform="translate(-170.236 -185.933)"/><path class="a" d="M219.864,218.705a.322.322,0,0,1-.033.146l-2.917,5.9a.352.352,0,0,1-.316.178.379.379,0,0,1-.39-.358.271.271,0,0,1,.041-.138l2.917-5.923a.316.316,0,0,1,.293-.171A.394.394,0,0,1,219.864,218.705Zm0,0" transform="translate(-184.54 -185.933)"/><path class="a" d="M248.569,238.282c-.057.138-.236.187-.414.187-.2,0-.382-.065-.431-.187l-.626-1.771-.617,1.763c-.049.13-.244.2-.447.2a.406.406,0,0,1-.406-.2l-1.251-3.209a.334.334,0,0,1-.041-.154c0-.252.406-.431.683-.431a.3.3,0,0,1,.3.171l.812,2.307.609-2.007c.057-.187.2-.211.358-.211s.3.025.358.211l.6,2.015.82-2.315a.3.3,0,0,1,.3-.17c.26,0,.675.178.675.439a.3.3,0,0,1-.033.146Zm0,0" transform="translate(-208.549 -199.709)"/><path class="a" d="M290.343,238.282c-.057.138-.235.187-.414.187-.2,0-.382-.065-.431-.187l-.625-1.771-.618,1.763c-.049.13-.243.2-.447.2a.407.407,0,0,1-.406-.2l-1.251-3.209a.334.334,0,0,1-.041-.154c0-.252.406-.431.683-.431a.3.3,0,0,1,.3.171l.812,2.307.609-2.007c.057-.187.2-.211.358-.211s.3.025.357.211l.6,2.015.821-2.315a.3.3,0,0,1,.3-.17c.26,0,.675.178.675.439a.3.3,0,0,1-.033.146Zm0,0" transform="translate(-244.204 -199.709)"/><path class="a" d="M332.12,238.282c-.057.138-.235.187-.414.187-.2,0-.382-.065-.431-.187l-.625-1.771-.618,1.763c-.049.13-.244.2-.447.2a.406.406,0,0,1-.406-.2l-1.251-3.209a.333.333,0,0,1-.041-.154c0-.252.406-.431.683-.431a.3.3,0,0,1,.3.171l.812,2.307.609-2.007c.057-.187.195-.211.357-.211s.3.025.358.211l.6,2.015.821-2.315a.3.3,0,0,1,.3-.17c.26,0,.675.178.675.439a.3.3,0,0,1-.033.146Zm0,0" transform="translate(-279.862 -199.709)"/><path class="a" d="M431.652,215.675l-1.186-.172-.53-1.075a1.65,1.65,0,0,0-2.959,0l-.53,1.075-1.186.172a1.65,1.65,0,0,0-.914,2.814l.858.836-.2,1.181a1.65,1.65,0,0,0,2.394,1.739l1.061-.558,1.061.558a1.65,1.65,0,0,0,2.394-1.739l-.2-1.181.858-.836a1.65,1.65,0,0,0-.914-2.814Zm-1.686,2.278a1.651,1.651,0,0,0-.474,1.46l.064.369-.331-.174a1.649,1.649,0,0,0-1.536,0l-.331.174.063-.369a1.648,1.648,0,0,0-.474-1.46l-.268-.261.37-.054a1.651,1.651,0,0,0,1.243-.9l.165-.336.166.336a1.649,1.649,0,0,0,1.242.9l.37.054Zm0,0" transform="translate(-361.767 -181.809)"/></g></svg>