<svg xmlns="http://www.w3.org/2000/svg" width="64.342" height="54.269" viewBox="0 0 64.342 54.269"><defs><style>.a{fill:#8ca6fc;}</style></defs><g transform="translate(0 -40.081)"><g transform="translate(0 40.081)"><path class="a" d="M60.378,40.081H3.965A3.969,3.969,0,0,0,0,44.046v38.28A3.969,3.969,0,0,0,3.965,86.29h19.08l-.772,6.174h-3.2a.943.943,0,0,0,0,1.885H45.267a.943.943,0,1,0,0-1.885h-3.2L41.3,86.29h19.08a3.969,3.969,0,0,0,3.965-3.965V44.046A3.969,3.969,0,0,0,60.378,40.081ZM24.172,92.464l.772-6.174h3.469l.34,1.361a3.523,3.523,0,0,0,6.836,0l.34-1.361H39.4l.772,6.174Zm6.184-6.174h3.63l-.226.9a1.638,1.638,0,0,1-3.178,0Zm32.1-3.965h0a2.082,2.082,0,0,1-2.08,2.08H3.965a2.082,2.082,0,0,1-2.08-2.08V44.046a2.082,2.082,0,0,1,2.08-2.08H60.378a2.082,2.082,0,0,1,2.08,2.08Z" transform="translate(0 -40.081)"/></g><g transform="translate(4.029 44.111)"><path class="a" d="M81.36,72.146H33.007a.942.942,0,0,0-.943.943v36.265a.942.942,0,0,0,.943.943h2.015a.943.943,0,0,0,0-1.885H33.949V74.031H81.36a.943.943,0,1,0,0-1.885Z" transform="translate(-32.064 -72.146)"/></g><g transform="translate(10.074 44.111)"><path class="a" d="M129.459,72.146h-2.015a.943.943,0,1,0,0,1.885h1.072v34.38H81.1a.943.943,0,0,0,0,1.885h48.354a.942.942,0,0,0,.943-.943V73.089A.942.942,0,0,0,129.459,72.146Z" transform="translate(-80.162 -72.146)"/></g><g transform="translate(17.126 50.155)"><path class="a" d="M164.152,124.632a.942.942,0,0,0-.7-.361l-22.162-1.007h-.052a1.953,1.953,0,0,0-.784-1.054l-2.714-1.809a.943.943,0,0,0-1.046,1.568l2.714,1.809a.066.066,0,0,1,.027.036l3.457,12.1a2.968,2.968,0,0,0,.513,1.009l-1.265,2.53a1.937,1.937,0,0,0,.085,1.9,1.958,1.958,0,0,0,.484.532,2.957,2.957,0,1,0,5.322.393h8.593a2.957,2.957,0,1,0,5.4-.245.942.942,0,0,0-.632-1.64h-17.51a.065.065,0,0,1-.058-.094l1.165-2.33a2.959,2.959,0,0,0,.737.094,3.038,3.038,0,0,0,.353-.021l13.244-1.558a3.955,3.955,0,0,0,3.424-3.16l1.584-7.921A.943.943,0,0,0,164.152,124.632Zm-4.772,17.641a1.072,1.072,0,1,1-1.072,1.072A1.073,1.073,0,0,1,159.38,142.274Zm-14.1,0a1.072,1.072,0,1,1-1.072,1.072A1.073,1.073,0,0,1,145.277,142.274Zm-2.311-12.966-1.181-4.134,3.768.171.653,3.963Zm2.9,6.858a1.067,1.067,0,0,1-1.156-.77l-1.2-4.2h3.013l.792,4.8Zm5.525-.65-2.2.259-.755-4.582h2.959Zm0-6.208h-3.27l-.639-3.875,3.908.178Zm4.773,5.646-2.888.34v-4.1H156.5Zm.511-5.646h-3.4V125.7l3.711.169Zm4.231,3.642a2.075,2.075,0,0,1-1.8,1.657l-1.033.122.32-3.536h2.86Zm.729-3.642h-3.066l.3-3.357,3.4.155Z" transform="translate(-136.276 -120.241)"/></g></g></svg>