<svg xmlns="http://www.w3.org/2000/svg" width="60" height="54" viewBox="0 0 60 54"><defs><style>.a{fill:#8ca6fc;}</style></defs><g transform="translate(-2 -5)"><path class="a" d="M59,32a1,1,0,0,0-1-1H42V6a1,1,0,0,0-1-1H15a1,1,0,0,0-1,1V31H6a1,1,0,0,0-1,1V57H2v2H62V57H59ZM42,33h6v3.586l-.293-.293a1,1,0,0,0-1.414,0L45,37.586l-1.293-1.293a1,1,0,0,0-1.414,0L42,36.586ZM31,7v3.586l-.293-.293a1,1,0,0,0-1.414,0L28,11.586l-1.293-1.293a1,1,0,0,0-1.414,0L25,10.586V7ZM16,7h7v6a1,1,0,0,0,1.707.707L26,12.414l1.293,1.293a1,1,0,0,0,1.414,0L30,12.414l1.293,1.293A1,1,0,0,0,33,13V7h7V31H16Zm0,26h6v3.586l-.293-.293a1,1,0,0,0-1.414,0L19,37.586l-1.293-1.293a1,1,0,0,0-1.414,0L16,36.586ZM7,33h7v6a1,1,0,0,0,1.707.707L17,38.414l1.293,1.293a1,1,0,0,0,1.414,0L21,38.414l1.293,1.293A1,1,0,0,0,24,39V33h7V57H7ZM33,57V33h7v6a1,1,0,0,0,1.707.707L43,38.414l1.293,1.293a1,1,0,0,0,1.414,0L47,38.414l1.293,1.293A1,1,0,0,0,50,39V33h7V57Z"/><path class="a" d="M9,41h5v2H9Z"/><path class="a" d="M9,45h7v2H9Z"/><path class="a" d="M35,41h6v2H35Z"/><path class="a" d="M35,45h9v2H35Z"/><path class="a" d="M18,15h3v2H18Z"/><path class="a" d="M18,19h9v2H18Z"/><path class="a" d="M28,49H24a1,1,0,0,0-1,1v4a1,1,0,0,0,1,1h4a1,1,0,0,0,1-1V50A1,1,0,0,0,28,49Zm-1,4H25V51h2Z"/><path class="a" d="M54,49H50a1,1,0,0,0-1,1v4a1,1,0,0,0,1,1h4a1,1,0,0,0,1-1V50A1,1,0,0,0,54,49Zm-1,4H51V51h2Z"/><path class="a" d="M33,29h4a1,1,0,0,0,1-1V24a1,1,0,0,0-1-1H33a1,1,0,0,0-1,1v4A1,1,0,0,0,33,29Zm1-4h2v2H34Z"/></g></svg>